<?xml version="1.0" encoding="utf-8"?>
<!-- Generator: Adobe Illustrator 22.0.1, SVG Export Plug-In . SVG Version: 6.00 Build 0)  -->
<svg version="1.1" id="Layer_1" xmlns="http://www.w3.org/2000/svg" xmlns:xlink="http://www.w3.org/1999/xlink" x="0px" y="0px"
	 viewBox="0 0 30.8 30.8" style="enable-background:new 0 0 30.8 30.8;" xml:space="preserve">
<style type="text/css">
	.st0{fill:#F35045;}
</style>
<g>
	<path class="st0" d="M19.3,25c0.2,0.3,0.4,0.3,0.6,0.2c0.2-0.1,9.8-3.4,10.1-3.5s0.2-0.2,0.1-0.3c-0.1-0.1-3.3-4.5-3.5-4.7
		c-0.2-0.3-0.2-0.2-0.5-0.1l-10.2,2.7C15.9,19.2,19.1,24.6,19.3,25z M30.8,20.5v-5.1c-1.1,0.3-2.6,0.7-3.2,0.9
		C28.5,17.4,29.8,19.2,30.8,20.5z M27.6,10c-0.2,0-3.6,0.7-3.8,0.7c-0.2,0-0.1,0.2-0.1,0.3l3.1,4.2c0,0,3.7-0.9,4-1c0,0,0,0,0.1,0
		v-0.6c-0.7-0.9-2.5-3.2-2.7-3.4C27.9,9.9,27.7,10,27.6,10L27.6,10z"/>
	<path class="st0" d="M5.7,3.5c0.8,0,0.8,0.1,1.2,0.6L15.2,18l10.4-2.5c-0.6-0.8-3.2-4.5-3.5-4.9s0-0.6,0.5-0.7
		c0.5-0.1,4.5-0.8,4.8-0.8C27.8,9,28,8.9,28.6,9.6c0.3,0.3,1.3,1.5,2.2,2.7V5.8c0-1.6-0.6-2.9-1.7-4.1C27.9,0.6,26.5,0,25,0L5.7,0.1
		c-1.6,0-2.9,0.6-4.1,1.7C1,2.4,0.6,3.1,0.3,3.9C2.2,3.8,5.2,3.5,5.7,3.5L5.7,3.5z"/>
	<path class="st0" d="M20.3,26.9c-0.9,0.3-1.3,0.4-1.9-0.4c-0.4-0.6-2.8-4.8-3.9-6.8c-2.2,0.6-6.1,1.6-7.2,1.9s-1.6-0.4-1.8-0.8
		C5.4,20.4,2.1,13.4,0,8.9V25c0,1.6,0.6,2.9,1.7,4.1c1.1,1.1,2.5,1.7,4.1,1.7L25,30.7c1.6,0,2.9-0.6,4.1-1.7
		c1.1-1.1,1.7-2.5,1.7-4.1V23C28.4,23.9,20.9,26.7,20.3,26.9z"/>
	<path class="st0" d="M7.3,19.9c0.3-0.1,6.2-1.5,6.3-1.5s0.2-0.1,0.1-0.3C13.5,17.8,5.8,4.6,5.8,4.6c-0.1-0.1,0-0.1-0.2-0.1
		C5.4,4.5,1.1,4.9,0.1,5C0,5.2,0,5.4,0,5.6c1,2.1,6.9,14.1,6.9,14.2C7,19.9,7,20,7.3,19.9L7.3,19.9z"/>
</g>
</svg>
