<svg width="256" height="90" viewBox="48 40 160 60" fill="none" xmlns="http://www.w3.org/2000/svg">
<path d="M57.6754 79.1275C57.8109 79.1275 57.898 79.0004 57.9367 78.7461C57.9948 78.4918 57.9076 78.032 57.6754 77.367C57.598 77.1127 57.4238 76.6627 57.1528 76.0171C56.9012 75.3715 56.6012 74.6281 56.2529 73.787C55.9045 72.9458 55.5465 72.0949 55.1787 71.234C54.8303 70.3733 54.5109 69.581 54.2206 68.8572C53.9303 68.1334 53.7077 67.5857 53.5529 67.214C53.3012 66.5488 53.0304 66.0794 52.74 65.8055C52.4691 65.5316 52.2465 65.3946 52.0723 65.3946H57.9948C57.8786 65.3946 57.8013 65.5316 57.7625 65.8055C57.7238 66.0794 57.8013 66.5488 57.9948 67.214C58.0916 67.5661 58.2464 68.0845 58.4592 68.7692C58.6915 69.4539 58.9432 70.2265 59.2141 71.0874C59.5044 71.9481 59.7948 72.8284 60.0851 73.7283C60.3947 74.6281 60.6754 75.4595 60.927 76.2225H60.956C61.169 75.44 61.4012 74.5988 61.6528 73.699C61.9044 72.7795 62.1464 71.8895 62.3786 71.0287C62.6108 70.1483 62.8141 69.3659 62.9883 68.6812C63.1818 67.9964 63.3173 67.4879 63.3947 67.1553C63.5689 66.4902 63.6367 66.0304 63.5979 65.7762C63.5592 65.5218 63.4915 65.3946 63.3947 65.3946H69.8398C69.7237 65.3946 69.6463 65.5316 69.6075 65.8055C69.5688 66.0794 69.6463 66.5488 69.8398 67.214C69.9366 67.5661 70.0818 68.0845 70.2753 68.7692C70.4688 69.4539 70.6817 70.2265 70.914 71.0874C71.1462 71.9481 71.3882 72.8284 71.6398 73.7283C71.8914 74.6281 72.114 75.4595 72.3075 76.2225H72.3366C72.6269 75.44 72.9269 74.5988 73.2365 73.699C73.5656 72.7795 73.885 71.8895 74.1946 71.0287C74.5042 70.1483 74.7752 69.3659 75.0075 68.6812C75.2398 67.9964 75.3946 67.4879 75.472 67.1553C75.6462 66.5293 75.714 66.0794 75.6752 65.8055C75.6365 65.5316 75.5688 65.3946 75.472 65.3946H81.2494C81.1139 65.3946 80.9202 65.5218 80.6687 65.7762C80.4172 66.0304 80.1559 66.4803 79.8848 67.126C79.7494 67.4781 79.5267 67.9964 79.2171 68.6812C78.9075 69.3659 78.5687 70.1288 78.201 70.9699C77.8333 71.8111 77.4655 72.6524 77.0978 73.4936C76.73 74.3347 76.401 75.0976 76.1107 75.7824C75.8397 76.4671 75.6462 76.9952 75.5301 77.367C75.3365 77.993 75.2591 78.4429 75.2978 78.7168C75.3365 78.9907 75.4139 79.1275 75.5301 79.1275H69.0559C69.172 79.1275 69.2495 78.9907 69.2882 78.7168C69.3269 78.4429 69.2495 77.993 69.0559 77.367C68.9979 77.1909 68.8817 76.7898 68.7076 76.1638C68.5527 75.5378 68.3591 74.7847 68.1269 73.9043C67.8947 73.0045 67.6527 72.0752 67.4012 71.1167C67.1496 70.1581 66.9076 69.2485 66.6753 68.3878H66.5883C66.356 69.2094 66.114 70.0897 65.8625 71.0287C65.6109 71.9481 65.3689 72.8479 65.1366 73.7283C64.9044 74.5891 64.6914 75.352 64.498 76.0171C64.3238 76.6627 64.2076 77.1127 64.1495 77.367C63.9754 78.0125 63.9075 78.4722 63.9463 78.7461C63.9851 79.0004 64.0528 79.1275 64.1495 79.1275H57.6754ZM87.6967 79.4209C85.6645 79.4209 84.0677 79.1373 82.9064 78.57C81.7645 78.0027 80.9613 77.1909 80.4968 76.1345C80.0323 75.0586 79.8 73.7772 79.8 72.2904C79.8 70.0798 80.4096 68.329 81.629 67.0379C82.8484 65.7468 84.7161 65.1012 87.2322 65.1012C88.7031 65.1012 89.8935 65.3066 90.8031 65.7174C91.7322 66.1283 92.4387 66.676 92.9224 67.3607C93.4063 68.0454 93.7353 68.8083 93.9095 69.6495C94.1031 70.4711 94.1998 71.3026 94.1998 72.1437V73.5229C94.1998 73.4642 93.9288 73.4056 93.387 73.3468C92.8644 73.2686 91.9741 73.2295 90.716 73.2295H83.9806C83.9806 74.3054 84.2999 75.1173 84.9387 75.665C85.5967 76.1932 86.6612 76.4573 88.1322 76.4573C89.3709 76.4573 90.4741 76.3106 91.4419 76.0171C92.4289 75.7041 93.145 75.4107 93.5902 75.1368V76.0171L93.8805 78.2472C93.5128 78.5015 92.8063 78.7656 91.7612 79.0395C90.716 79.2938 89.3613 79.4209 87.6967 79.4209ZM85.0548 70.7058H90.0773C90.0773 70.2756 89.9805 69.8549 89.787 69.4441C89.6129 69.0333 89.3225 68.7007 88.9161 68.4464C88.5096 68.1725 87.9483 68.0356 87.2322 68.0356C86.1678 68.0356 85.4032 68.2605 84.9387 68.7105C84.4742 69.1604 84.2419 69.6299 84.2419 70.119C84.2419 70.3146 84.2999 70.4613 84.4161 70.5592C84.5322 70.657 84.7452 70.7058 85.0548 70.7058ZM101.208 79.4209C99.8729 79.4209 98.9052 79.1373 98.3051 78.57C97.7051 77.9831 97.4051 77.0343 97.4051 75.7236V68.329H94.7922V65.3946C95.6827 65.3946 96.3794 65.2871 96.8825 65.0719C97.3858 64.8371 97.7439 64.4361 97.9567 63.8687C98.1696 63.3015 98.276 62.5092 98.276 61.4919H101.528V65.3946H106.492C106.357 65.7859 106.221 66.275 106.086 66.8619C105.97 67.4292 105.911 67.9182 105.911 68.329H101.528V74.1097C101.528 75.0096 101.595 75.6258 101.731 75.9584C101.866 76.2911 102.186 76.4573 102.689 76.4573C103.018 76.4573 103.376 76.3399 103.763 76.1052C104.17 75.8704 104.557 75.5868 104.924 75.2542C105.311 74.902 105.631 74.5694 105.882 74.2565V75.1661L106.173 78.0125C105.824 78.3254 105.215 78.6385 104.344 78.9515C103.473 79.2645 102.428 79.4209 101.208 79.4209ZM106.887 79.1275C107.023 79.1275 107.149 78.9907 107.265 78.7168C107.4 78.4429 107.468 77.993 107.468 77.367V67.4487C107.468 66.8227 107.4 66.3825 107.265 66.1283C107.149 65.8543 107.023 65.7077 106.887 65.6881C107.739 65.6881 108.61 65.6294 109.5 65.5121C110.391 65.3751 111.087 65.2382 111.591 65.1012V66.275L111.533 66.7738L111.591 66.8325C111.726 66.6173 111.939 66.3825 112.229 66.1283C112.539 65.8543 112.926 65.6196 113.391 65.424C113.875 65.2088 114.436 65.1012 115.074 65.1012C116.023 65.1012 116.865 65.2382 117.6 65.5121C118.336 65.7663 118.858 66.0304 119.168 66.3043L118.297 70.2364V71.1167C118.007 70.7058 117.61 70.2853 117.107 69.8549C116.623 69.4245 116.081 69.0626 115.481 68.7692C114.9 68.4758 114.3 68.329 113.681 68.329C112.984 68.329 112.462 68.5834 112.113 69.0919C111.765 69.6006 111.591 70.4026 111.591 71.4981V77.367C111.591 77.993 111.649 78.4429 111.765 78.7168C111.9 78.9907 112.036 79.1275 112.171 79.1275H106.887ZM124.598 79.4209C122.856 79.4209 121.462 79.0787 120.417 78.3939C119.391 77.6897 118.879 76.5648 118.879 75.0195C118.879 73.9436 119.149 73.0729 119.692 72.4078C120.233 71.7427 120.969 71.2536 121.898 70.9406C122.846 70.608 123.92 70.4417 125.12 70.4417C126.456 70.4417 127.501 70.5983 128.256 70.9113C129.011 71.2242 129.485 71.4395 129.679 71.5569C129.679 70.3439 129.466 69.4539 129.04 68.8865C128.614 68.3193 127.791 68.0356 126.572 68.0356C125.391 68.0356 124.346 68.153 123.437 68.3878C122.527 68.6224 121.782 68.8963 121.201 69.2094C120.64 69.5223 120.253 69.7864 120.04 70.0017V69.1213L119.75 66.2456C119.885 66.1674 120.243 66.0403 120.824 65.8642C121.404 65.6881 122.198 65.5218 123.204 65.3653C124.211 65.1892 125.411 65.1012 126.804 65.1012C128.72 65.1012 130.182 65.3848 131.188 65.9522C132.195 66.5 132.882 67.2922 133.249 68.329C133.636 69.3659 133.83 70.6179 133.83 72.0851V77.367C133.83 77.9147 133.888 78.3157 134.004 78.57C134.14 78.8048 134.275 78.9907 134.411 79.1275H129.708V78.5113L129.766 77.9538L129.708 77.8952C129.398 78.2277 128.808 78.57 127.937 78.9221C127.085 79.2548 125.972 79.4209 124.598 79.4209ZM125.962 76.4573C127.162 76.4573 128.082 76.3204 128.72 76.0465C129.379 75.753 129.708 75.3814 129.708 74.9314C129.708 74.4815 129.369 74.1097 128.691 73.8163C128.033 73.5229 127.133 73.3761 125.991 73.3761C124.888 73.3761 124.104 73.5327 123.64 73.8456C123.195 74.1586 122.972 74.5499 122.972 75.0195C122.972 75.6063 123.233 75.9975 123.756 76.1932C124.279 76.3693 125.014 76.4573 125.962 76.4573ZM135.638 79.1275C135.774 79.1275 135.899 78.9907 136.016 78.7168C136.151 78.4429 136.219 77.993 136.219 77.367V67.4487C136.219 66.8227 136.151 66.3825 136.016 66.1283C135.899 65.8543 135.774 65.7077 135.638 65.6881C136.49 65.6881 137.361 65.6294 138.251 65.5121C139.141 65.3751 139.838 65.2382 140.341 65.1012V66.8912L140.284 67.2726L140.341 67.3314C140.399 67.1944 140.583 66.9499 140.893 66.5978C141.203 66.2456 141.648 65.913 142.228 65.6001C142.809 65.2675 143.525 65.1012 144.376 65.1012C146.176 65.1012 147.551 65.6196 148.499 66.6564C149.467 67.6933 149.951 69.3169 149.951 71.5275V77.367C149.951 77.993 150.009 78.4429 150.125 78.7168C150.261 78.9907 150.396 79.1275 150.532 79.1275H145.248C145.383 79.1275 145.509 78.9907 145.625 78.7168C145.76 78.4429 145.828 77.993 145.828 77.367V71.6156C145.828 70.2265 145.616 69.2876 145.189 68.7985C144.764 68.2899 144.221 68.0356 143.564 68.0356C142.731 68.0356 141.987 68.3388 141.329 68.9453C140.671 69.5321 140.341 70.5103 140.341 71.8797V77.367C140.341 77.993 140.399 78.4429 140.516 78.7168C140.651 78.9907 140.787 79.1275 140.922 79.1275H135.638ZM159.03 79.4209C157.308 79.4209 155.855 79.3231 154.675 79.1275C153.495 78.932 152.682 78.7363 152.237 78.5407V77.6604L151.626 74.7847C152.13 75.1563 153.069 75.5281 154.443 75.8997C155.817 76.2713 157.501 76.4573 159.495 76.4573C160.404 76.4573 161.033 76.3693 161.382 76.1932C161.749 76.0171 161.933 75.7138 161.933 75.2835C161.933 74.9509 161.807 74.6966 161.555 74.5206C161.324 74.3445 160.897 74.2076 160.279 74.1097C159.659 73.9924 158.759 73.8555 157.578 73.699C156.088 73.5034 154.907 73.2295 154.037 72.8774C153.165 72.5057 152.547 72.0361 152.179 71.4688C151.83 70.8819 151.656 70.1679 151.656 69.3267C151.656 68.5442 151.84 67.84 152.208 67.214C152.594 66.5684 153.253 66.0598 154.181 65.6881C155.13 65.2968 156.446 65.1012 158.13 65.1012C159.717 65.1012 161.11 65.199 162.31 65.3946C163.51 65.5903 164.372 65.7859 164.894 65.9815V66.8619L165.475 69.4441C165.029 69.1506 164.159 68.8475 162.862 68.5344C161.566 68.2215 159.92 68.0649 157.927 68.0649C157.153 68.0649 156.601 68.1432 156.272 68.2997C155.943 68.4562 155.778 68.73 155.778 69.1213C155.778 69.3757 155.884 69.5908 156.098 69.7669C156.311 69.9234 156.727 70.0701 157.346 70.207C157.985 70.3439 158.933 70.5005 160.191 70.6765C161.836 70.8918 163.075 71.1949 163.907 71.5862C164.739 71.9578 165.301 72.4274 165.591 72.9947C165.881 73.5424 166.027 74.2076 166.027 74.9901C166.027 76.4964 165.465 77.6115 164.343 78.3352C163.22 79.059 161.449 79.4209 159.03 79.4209ZM167.724 79.1275C167.859 79.1275 167.985 78.9907 168.101 78.7168C168.236 78.4429 168.304 77.993 168.304 77.367V68.329H165.691V65.3946H168.595L168.623 65.336C168.566 65.2382 168.45 64.9154 168.275 64.3676C168.101 63.8003 168.014 63.1352 168.014 62.3723C168.014 60.8268 168.45 59.7117 169.321 59.027C170.211 58.3424 171.42 58 172.95 58C174.188 58 175.282 58.0685 176.23 58.2054C177.179 58.3228 177.866 58.45 178.292 58.5869V59.4966L178.873 62.695C178.523 62.4407 178.068 62.1864 177.508 61.9321C176.965 61.6582 176.385 61.4332 175.766 61.2572C175.146 61.0616 174.527 60.9637 173.907 60.9637C173.288 60.9637 172.843 61.1105 172.572 61.4039C172.321 61.6973 172.195 62.1277 172.195 62.695V64.5144C172.195 64.9447 172.233 65.199 172.31 65.2773C172.388 65.3555 172.649 65.3946 173.094 65.3946H177.449C177.314 65.5707 177.179 65.913 177.042 66.4217C176.927 66.9107 176.869 67.5465 176.869 68.329H172.485V77.367C172.485 77.993 172.543 78.4429 172.659 78.7168C172.795 78.9907 172.93 79.1275 173.065 79.1275H167.724ZM184.582 79.4209C182.549 79.4209 180.952 79.1373 179.792 78.57C178.649 78.0027 177.846 77.1909 177.381 76.1345C176.918 75.0586 176.685 73.7772 176.685 72.2904C176.685 70.0798 177.294 68.329 178.514 67.0379C179.733 65.7468 181.601 65.1012 184.117 65.1012C185.588 65.1012 186.778 65.3066 187.688 65.7174C188.617 66.1283 189.324 66.676 189.807 67.3607C190.291 68.0454 190.62 68.8083 190.795 69.6495C190.988 70.4711 191.085 71.3026 191.085 72.1437V73.5229C191.085 73.4642 190.813 73.4056 190.272 73.3468C189.75 73.2686 188.859 73.2295 187.6 73.2295H180.866C180.866 74.3054 181.185 75.1173 181.823 75.665C182.481 76.1932 183.547 76.4573 185.017 76.4573C186.256 76.4573 187.359 76.3106 188.326 76.0171C189.314 75.7041 190.029 75.4107 190.476 75.1368V76.0171L190.766 78.2472C190.398 78.5015 189.692 78.7656 188.647 79.0395C187.601 79.2938 186.246 79.4209 184.582 79.4209ZM181.94 70.7058H186.962C186.962 70.2756 186.865 69.8549 186.672 69.4441C186.497 69.0333 186.207 68.7007 185.801 68.4464C185.394 68.1725 184.833 68.0356 184.117 68.0356C183.053 68.0356 182.288 68.2605 181.823 68.7105C181.359 69.1604 181.127 69.6299 181.127 70.119C181.127 70.3146 181.185 70.4613 181.301 70.5592C181.417 70.657 181.63 70.7058 181.94 70.7058ZM192.374 79.1275C192.51 79.1275 192.635 78.9907 192.751 78.7168C192.887 78.4429 192.954 77.993 192.954 77.367V67.4487C192.954 66.8227 192.887 66.3825 192.751 66.1283C192.635 65.8543 192.51 65.7077 192.374 65.6881C193.226 65.6881 194.096 65.6294 194.987 65.5121C195.878 65.3751 196.574 65.2382 197.077 65.1012V66.275L197.018 66.7738L197.077 66.8325C197.213 66.6173 197.425 66.3825 197.715 66.1283C198.026 65.8543 198.412 65.6196 198.877 65.424C199.361 65.2088 199.922 65.1012 200.56 65.1012C201.51 65.1012 202.351 65.2382 203.087 65.5121C203.822 65.7663 204.344 66.0304 204.654 66.3043L203.783 70.2364V71.1167C203.492 70.7058 203.096 70.2853 202.593 69.8549C202.11 69.4245 201.567 69.0626 200.967 68.7692C200.386 68.4758 199.787 68.329 199.167 68.329C198.47 68.329 197.948 68.5834 197.599 69.0919C197.25 69.6006 197.077 70.4026 197.077 71.4981V77.367C197.077 77.993 197.135 78.4429 197.25 78.7168C197.387 78.9907 197.522 79.1275 197.657 79.1275H192.374Z" fill="#869ab8"/>
</svg>
