<svg width="256" height="90" viewBox="48 40 160 60" fill="none" xmlns="http://www.w3.org/2000/svg">
<path d="M104.315 79.3332V79.524H96.2658V79.3332C97.1704 79.1744 97.5266 78.9517 97.6232 78.2526V67.6989C97.6232 65.7586 96.9125 64.8048 95.4577 64.8048C94.9768 64.8144 94.5113 64.9734 94.1278 65.259C93.7442 65.5444 93.4623 65.942 93.3221 66.3947C93.3881 66.7622 93.4208 67.1348 93.4195 67.5081V77.4298C93.4195 78.6063 93.7749 79.0837 94.8718 79.3374V79.5282H87.1785V79.3332C88.2771 79.0812 88.6307 78.6021 88.6307 77.4256V67.6947C88.6307 65.7544 87.8867 64.8006 86.4644 64.8006C86.0122 64.8047 85.5727 64.948 85.2074 65.2104C84.8421 65.4728 84.5696 65.8411 84.428 66.2636V77.4256C84.428 78.6021 84.7834 79.0795 85.8802 79.3332V79.524H77.7344V79.3332C78.9943 79.0476 79.641 78.5063 79.641 77.2324V67.0947C79.641 65.409 79.189 64.8998 77.7344 64.7728V64.5821L84.4254 62.7695V65.7586C84.7074 64.8466 85.2886 64.0523 86.0782 63.4998C86.8679 62.9475 87.8215 62.6681 88.7897 62.7056C91.2139 62.7056 92.7336 63.914 93.2179 65.8863C93.533 64.9406 94.15 64.1202 94.9771 63.5471C95.8042 62.9741 96.7973 62.6789 97.8086 62.7056C100.815 62.7056 102.399 64.614 102.399 67.5081V77.2391C102.408 78.5105 103.054 79.0518 104.315 79.3332Z" fill="#869ab8"/>
<path d="M121.417 76.0627C120.868 78.6676 119.154 80.0063 116.89 80.0063C116.482 80.043 116.07 79.9995 115.679 79.8781C115.288 79.7569 114.926 79.5602 114.613 79.2999C114.3 79.0394 114.043 78.7203 113.857 78.3612C113.67 78.002 113.559 77.6101 113.528 77.2081L113.464 76.9559C113.168 77.8781 112.57 78.6779 111.763 79.2299C110.956 79.7819 109.985 80.055 109.004 80.0063C108.449 80.0488 107.89 79.9774 107.365 79.7965C106.839 79.6156 106.357 79.3292 105.95 78.9555C105.543 78.5818 105.219 78.1289 104.999 77.6256C104.779 77.1222 104.667 76.5794 104.672 76.0316C104.672 73.2013 107 71.3568 110.717 70.593L113.4 70.0526V69.3804C113.4 66.9316 112.495 65.2467 109.779 65.2467C107.679 65.2467 106.192 66.2325 105.48 68.7131L105.224 68.6493C105.736 64.9922 108.197 62.7023 112.012 62.7023C116.312 62.7023 118.187 65.4056 118.187 69.4761V75.8677C118.187 76.9811 118.736 77.5533 119.447 77.5533C120.062 77.5533 120.772 77.2038 121.128 76.0274L121.417 76.0627ZM113.4 76.413V70.8467L112.14 71.0694C109.618 71.5786 109.134 73.1366 109.134 74.6946C109.134 76.3164 109.942 77.5886 111.493 77.5886C111.897 77.6188 112.3 77.5209 112.643 77.3094C112.986 77.0978 113.252 76.7837 113.4 76.413Z" fill="#869ab8"/>
<path d="M138.972 79.3343V79.525H130.826V79.3343C131.893 79.0822 132.278 78.6032 132.278 77.4267V67.7318C132.278 65.7915 131.535 64.8058 130.016 64.8058C129.5 64.8015 128.995 64.947 128.564 65.2242C128.133 65.5014 127.794 65.8979 127.591 66.3638V77.4309C127.591 78.6074 127.947 79.0847 129.044 79.3385V79.5292H120.898V79.3343C122.159 79.0486 122.806 78.5073 122.806 77.2334V67.0957C122.806 65.41 122.353 64.9007 120.898 64.7739V64.5831L127.59 62.7706V65.8889C127.918 64.9188 128.561 64.0817 129.42 63.5065C130.28 62.9315 131.307 62.6504 132.345 62.7066C135.42 62.7066 137.065 64.5554 137.065 67.5403V77.2401C137.066 78.5115 137.712 79.0528 138.972 79.3343Z" fill="#869ab8"/>
<path d="M149.965 75.7763C149.254 78.0973 147.508 80.0057 144.696 80.0057C141.98 80.0057 140.687 78.3201 140.687 75.8402V63.8823H138.812V63.7235C141.388 62.2953 143.625 60.3443 145.375 58H145.504V63.247H148.769V63.8823H145.5V75.1082C145.5 76.5713 146.115 77.557 147.31 77.557C147.867 77.5561 148.405 77.3701 148.839 77.0293C149.274 76.6886 149.578 76.2131 149.702 75.6805L149.965 75.7763Z" fill="#869ab8"/>
<path d="M163.381 73.7734C162.572 78.3524 159.631 80.0062 156.818 80.0062C153.068 80.0062 149.643 77.144 149.643 71.6743C149.643 66.4591 152.585 62.7063 157.013 62.7063C160.148 62.7063 163.382 64.6466 163.349 69.8936H153.392C153.716 73.9642 155.849 76.2221 158.986 76.2221C159.862 76.3015 160.743 76.0998 161.494 75.647C162.245 75.1942 162.828 74.5146 163.155 73.7096L163.381 73.7734ZM153.359 68.7457V69.0953H158.951C158.984 65.0248 157.917 63.5937 156.303 63.5937C154.491 63.597 153.359 65.5684 153.359 68.7457Z" fill="#869ab8"/>
<path d="M175.762 62.7063V67.2861H175.601C175.072 67.0577 174.496 66.9593 173.92 66.9995C171.819 66.9995 170.428 68.113 170.428 72.3423V77.2398C170.428 78.6683 171.237 79.1154 172.981 79.3406V79.5314H163.736V79.3339C164.997 79.0481 165.644 78.507 165.644 77.2331V67.3811C165.644 65.5684 165.158 64.9324 163.736 64.8054V64.6147L170.234 62.7702V69.8936H170.396C170.653 64.7735 172.594 62.7063 175.407 62.7063H175.762Z" fill="#869ab8"/>
<path d="M174.34 77.3347C174.351 76.6413 174.639 75.9799 175.14 75.4927C175.642 75.0056 176.318 74.7316 177.023 74.7297C177.722 74.7388 178.39 75.0162 178.885 75.5028C179.38 75.9894 179.662 76.6467 179.671 77.3347C179.675 78.0299 179.398 78.6981 178.901 79.1929C178.405 79.6877 177.729 79.9687 177.023 79.9742C176.67 79.9751 176.321 79.9075 175.995 79.7751C175.669 79.6428 175.373 79.4483 175.124 79.2031C174.874 78.9578 174.676 78.6665 174.542 78.3459C174.407 78.0253 174.339 77.6816 174.34 77.3347Z" fill="#869ab8"/>
</svg>
