<svg width="256" height="90" viewBox="48 40 160 60" fill="none" xmlns="http://www.w3.org/2000/svg">
<path d="M68.7472 78.6058C73.1958 78.6058 77.0308 76.3112 77.0308 72.28C77.0308 63.3493 64.6361 67.6285 64.6361 60.9616C64.6361 59.194 65.7713 57.7676 68.103 57.7676C72.5822 57.7676 71.4471 63.2873 74.7605 63.2873C76.0797 63.2873 76.724 62.543 76.724 61.3647C76.7547 58.7909 73.3492 56 68.195 56C63.1328 56 60.0649 58.7289 60.0649 62.45C60.0956 71.6288 72.4902 67.1014 72.4902 73.7064C72.4902 75.598 71.0789 76.8383 68.9313 76.8383C63.7464 76.8383 64.5747 71.1946 61.5068 71.1326C60.249 71.1326 59.666 71.9389 59.666 73.0241C59.666 75.5049 62.918 78.6058 68.7472 78.6058ZM92.497 75.1328V63.7834C92.497 63.2563 92.1289 63.1322 91.3312 63.2253L87.4042 63.8144C87.036 63.8764 86.7906 64.1555 86.7906 64.4656V64.5586C86.7906 65.2409 88.0178 65.5509 88.0178 66.9154V73.2102C88.0178 75.4119 86.8519 76.8383 85.3793 76.8383C83.692 76.8383 82.8329 75.5049 82.8329 72.6211L82.9249 63.7834C82.9249 63.2563 82.4648 63.1322 81.6671 63.2253L77.8014 63.8144C77.4026 63.8764 77.1571 64.1555 77.1571 64.4656V64.5586C77.1571 65.2409 78.3537 65.5509 78.3537 66.9154V72.1559C78.3537 76.4043 80.9 78.6058 84.0601 78.6058C86.1771 78.6058 87.6803 77.8307 88.5086 76.4663C88.6007 77.9857 89.4904 78.4819 91.2392 78.4819C92.9573 78.4819 93.9696 78.2958 93.9696 77.5826C93.9696 76.4353 92.497 77.5826 92.497 75.1328ZM107.529 63.4113C104.4 63.4113 103.387 63.1012 101.424 63.1012C97.1284 63.1012 94.1525 65.737 94.1525 69.6131C94.1525 73.1482 97.2205 75.753 101.332 75.753C101.73 75.753 102.129 75.722 102.528 75.691C103.725 75.9391 104.43 76.9934 104.43 78.5439C104.43 80.2804 103.234 81.4587 101.332 81.4587C97.742 81.3967 98.417 76.7453 95.9012 76.7453C94.6434 76.7453 94.0911 77.6136 94.0911 78.4819C94.0911 80.9005 96.7296 82.7611 101.24 82.7611C105.596 82.7611 108.94 81.0556 108.94 78.4199C108.94 76.7763 107.989 75.5049 105.259 74.8847C107.376 73.8614 108.695 71.9389 108.695 69.4891C108.695 68.0007 107.958 66.5432 106.977 65.5199C107.928 65.2409 109.094 65.3648 109.308 64.3416C109.492 63.7834 109.186 63.4113 107.529 63.4113ZM98.4784 67.5665C98.4784 65.6749 99.3374 64.4656 100.749 64.4656C102.896 64.4656 104.338 68.2798 104.338 71.2566C104.338 73.0862 103.479 74.3576 102.007 74.3576C100.074 74.3576 98.4784 70.8536 98.4784 67.5665ZM123.663 75.1948L122.988 69.4581C122.558 65.5509 119.858 63.1012 115.87 63.1012C112.679 63.1012 109.979 64.4036 109.979 66.6363C109.979 67.6906 110.716 68.3728 111.82 68.3728C114.121 68.3728 113.416 64.4036 115.87 64.4036C117.741 64.4036 118.232 66.1401 118.6 69.7682L118.631 70.1403C117.834 69.5821 116.698 69.21 115.287 69.21C112.28 69.21 109.703 70.8226 109.734 73.9235C109.734 77.0244 112.188 78.6058 115.502 78.6058C117.619 78.6058 118.907 77.8307 119.582 76.8073C119.766 78.1408 120.564 78.4819 122.313 78.4819C123.785 78.4819 125.258 78.2958 125.258 77.5826C125.258 76.7453 123.908 77.3345 123.663 75.1948ZM116.852 77.2414C115.287 77.2414 114.275 75.3499 114.275 73.2102C114.275 71.6288 115.226 70.6055 116.514 70.6055C117.772 70.6055 118.754 71.5357 118.938 73.3653L119.03 74.4507C119.122 75.8461 118.263 77.2414 116.852 77.2414ZM134.374 63.1012C132.318 63.1012 130.877 64.1865 130.202 66.1711V63.8454C130.202 63.2563 129.925 62.8841 129.22 63.2253L125.538 64.9618C125.139 65.1479 124.894 65.3958 124.894 65.7059V65.83C124.894 66.6053 126.305 66.6983 126.305 68.0627V75.3189C126.305 76.6213 125.109 76.8693 125.109 77.6446V77.7686C125.109 78.1098 125.385 78.2958 125.814 78.2958H131.49C131.889 78.2958 132.165 78.1098 132.165 77.7686V77.6446C132.165 76.8693 130.631 76.6213 130.631 75.3189V69.1171C130.631 67.4115 131.061 65.7059 132.257 65.7059C133.914 65.7059 132.84 68.3728 135.233 68.3728C136.706 68.3728 137.196 67.2255 137.196 65.923C137.196 64.3416 136.184 63.1012 134.374 63.1012ZM144.341 78.6058C148.33 78.6058 150.416 76.0941 150.6 73.5513C150.661 72.8692 149.894 72.7452 149.526 73.2412C148.882 74.3576 147.716 75.4119 145.844 75.4119C142.715 75.4119 140.629 72.7141 140.629 68.5899C140.629 66.2952 141.734 64.4656 143.482 64.4656C146.151 64.4346 145.967 68.838 148.606 68.993C150.017 69.055 150.508 68.2488 150.508 67.4425C150.508 65.0238 147.685 63.0702 144.156 63.1012C140.015 63.1322 136.426 66.0471 136.426 70.8226C136.426 75.0088 139.708 78.6058 144.341 78.6058ZM164.892 75.1948L164.218 69.4581C163.788 65.5509 161.088 63.1012 157.1 63.1012C153.909 63.1012 151.209 64.4036 151.209 66.6363C151.209 67.6906 151.945 68.3728 153.05 68.3728C155.351 68.3728 154.645 64.4036 157.1 64.4036C158.971 64.4036 159.462 66.1401 159.83 69.7682L159.861 70.1403C159.063 69.5821 157.927 69.21 156.517 69.21C153.51 69.21 150.933 70.8226 150.963 73.9235C150.963 77.0244 153.418 78.6058 156.732 78.6058C158.848 78.6058 160.136 77.8307 160.812 76.8073C160.996 78.1408 161.794 78.4819 163.542 78.4819C165.015 78.4819 166.488 78.2958 166.488 77.5826C166.488 76.7453 165.138 77.3345 164.892 75.1948ZM158.081 77.2414C156.517 77.2414 155.505 75.3499 155.505 73.2102C155.505 71.6288 156.456 70.6055 157.744 70.6055C159.002 70.6055 159.983 71.5357 160.168 73.3653L160.26 74.4507C160.351 75.8461 159.492 77.2414 158.081 77.2414ZM182.169 75.2879L181.801 69.7062C181.433 64.7757 178.733 63.1012 175.941 63.1012C173.855 63.1012 172.229 64.0315 171.401 65.6129V63.8764C171.401 63.2873 171.063 62.8531 170.357 63.2253L166.707 65.0238C166.338 65.2099 166.093 65.3648 166.093 65.6749V65.799C166.093 66.5743 167.596 66.6983 167.596 68.0937V75.3189C167.596 76.6523 166.277 76.9003 166.277 77.6756V77.7996C166.277 78.1098 166.553 78.3268 166.982 78.3268H172.689C173.118 78.3268 173.395 78.1098 173.395 77.7996V77.6756C173.395 76.9003 172.076 76.6523 172.076 75.3189V68.2798C172.076 66.2641 173.027 64.8688 174.683 64.8688C176.31 64.8688 177.2 66.2331 177.353 69.5511L177.659 75.2879C177.721 76.6523 176.555 76.9003 176.555 77.6756V77.7996C176.555 78.1098 176.831 78.3268 177.261 78.3268H182.568C182.998 78.3268 183.274 78.1098 183.274 77.7996V77.6756C183.274 76.9003 182.262 76.6523 182.169 75.2879ZM195.931 73.5823C195.348 74.5437 194.059 75.3809 192.433 75.3809C190.593 75.3809 189.182 74.3886 188.384 72.6831L195.195 69.5511C196.023 69.179 196.544 68.5589 196.544 67.5045C196.544 65.4579 194.766 63.1012 190.746 63.1012C186.727 63.1012 183.322 66.2331 183.322 70.7295C183.322 75.5049 186.482 78.6058 190.746 78.6058C194.703 78.6058 196.79 75.722 196.974 73.9235C197.005 73.2722 196.299 73.1172 195.931 73.5823ZM190.194 64.4656C191.85 64.4656 192.649 66.6673 192.649 67.7836C192.649 68.4348 192.403 68.962 191.85 69.241L187.892 71.2566C187.678 70.4504 187.586 69.5511 187.586 68.5899C187.586 66.2331 188.568 64.4656 190.194 64.4656Z" fill="#869ab8"/>
</svg>
