<svg width="256" height="90" viewBox="48 40 160 60" fill="none" xmlns="http://www.w3.org/2000/svg">
<path d="M92.7559 71.9658L96.3306 70.9792C96.3896 71.7747 96.7575 72.5143 97.3544 73.0372C98.0532 73.6232 98.9458 73.9209 99.853 73.8703C100.529 73.9092 101.199 73.7244 101.762 73.3442C101.974 73.2018 102.147 73.0092 102.268 72.7834C102.388 72.5574 102.452 72.3051 102.453 72.0485C102.454 71.8358 102.409 71.6255 102.32 71.4326C102.231 71.2397 102.102 71.0688 101.94 70.9324C101.5 70.5804 100.973 70.3546 100.417 70.2785L97.8499 69.6965C96.53 69.4509 95.3227 68.7852 94.4046 67.7971C93.6106 66.8995 93.1802 65.7332 93.1992 64.5302C93.1985 63.7791 93.3642 63.0373 93.6839 62.3592C94.0036 61.681 94.4694 61.0835 95.0472 60.6104C96.2979 59.5128 97.9112 58.9292 99.5677 58.975C100.409 58.9654 101.248 59.0826 102.055 59.3228C102.704 59.5077 103.319 59.7975 103.876 60.1809C104.334 60.5139 104.74 60.9146 105.08 61.3698C105.38 61.7583 105.63 62.1836 105.825 62.6356C105.978 63.0089 106.087 63.3993 106.149 63.7985L102.752 64.7852C102.715 64.5019 102.633 64.2265 102.51 63.969C102.368 63.6734 102.188 63.3984 101.974 63.1518C101.708 62.8555 101.375 62.6283 101.004 62.489C100.546 62.3111 100.058 62.2244 99.5677 62.2339C98.9214 62.21 98.2878 62.4188 97.7798 62.823C97.5618 62.9851 97.3842 63.1962 97.2608 63.4394C97.1374 63.6828 97.0718 63.9518 97.069 64.2252C97.0665 64.4414 97.1077 64.6557 97.1902 64.8552C97.2727 65.0547 97.3947 65.2351 97.5488 65.3851C97.9023 65.7251 98.3499 65.9483 98.8322 66.0251L101.447 66.5682C102.812 66.7943 104.074 67.4402 105.061 68.4179C105.886 69.2813 106.338 70.4396 106.318 71.6389C106.318 72.3614 106.179 73.0769 105.908 73.7458C105.628 74.4368 105.229 75.0724 104.73 75.6234C104.163 76.2309 103.469 76.7023 102.698 77.0027C101.802 77.3628 100.844 77.5413 99.8796 77.5278C98.7955 77.5451 97.718 77.3536 96.7047 76.9638C95.868 76.6545 95.1112 76.1581 94.4914 75.5118C93.9955 74.982 93.5803 74.3808 93.2594 73.7278C92.9917 73.1744 92.8213 72.5782 92.7559 71.9658Z" fill="#869ab8"/>
<path d="M106.328 63.1826V59.521H107.217C107.584 59.5477 107.952 59.4938 108.297 59.3631C108.642 59.2323 108.954 59.0278 109.213 58.7635C109.681 58.21 109.923 57.4973 109.889 56.7703V54.1254H113.621V59.521H117.212V63.1826H113.621V71.3309C113.593 71.6331 113.625 71.9381 113.716 72.2275C113.807 72.517 113.955 72.7851 114.15 73.016C114.621 73.4038 115.223 73.5905 115.828 73.5363C116.306 73.5373 116.782 73.4899 117.251 73.3948V76.8152C116.437 77.107 115.574 77.2369 114.712 77.1978C114.017 77.2365 113.322 77.1336 112.667 76.8952C112.013 76.6568 111.413 76.288 110.903 75.8106C110.424 75.302 110.054 74.6999 109.815 74.0414C109.576 73.3829 109.472 72.6818 109.512 71.9816V63.1826H106.328Z" fill="#869ab8"/>
<path d="M118.235 72.3011C118.205 71.6308 118.318 70.9619 118.567 70.3396C118.815 69.7174 119.194 69.1562 119.675 68.6943C120.735 67.7492 122.055 67.1547 123.459 66.9912L127.902 66.3074C128.757 66.1985 129.185 65.8054 129.185 65.1284C129.194 64.7862 129.125 64.4467 128.983 64.1356C128.841 63.8246 128.631 63.5505 128.368 63.3345C127.657 62.8186 126.788 62.5715 125.915 62.6369C125.002 62.5895 124.106 62.9029 123.418 63.511C122.798 64.0919 122.416 64.8868 122.348 65.7383L118.596 64.8982C118.675 64.0858 118.911 63.2968 119.291 62.5768C119.672 61.8566 120.19 61.2193 120.815 60.7015C122.228 59.517 124.025 58.9022 125.86 58.9753C127.023 58.9539 128.18 59.137 129.28 59.5166C130.165 59.815 130.965 60.3259 131.612 61.0055C132.175 61.6199 132.607 62.3439 132.883 63.1332C133.165 63.96 133.304 64.8293 133.296 65.7035V74.1837C133.282 75.1226 133.357 76.0608 133.521 76.9851H129.624C129.456 76.2561 129.39 75.5071 129.426 74.7597C128.907 75.5731 128.199 76.2466 127.364 76.7221C126.363 77.2854 125.23 77.564 124.085 77.5282C122.529 77.5976 121.008 77.0451 119.852 75.9905C119.338 75.5273 118.928 74.9585 118.649 74.3223C118.37 73.6859 118.229 72.9968 118.235 72.3011ZM122.348 72.002C122.343 72.3011 122.4 72.5978 122.515 72.8733C122.63 73.1489 122.801 73.3969 123.017 73.6016C123.268 73.829 123.561 74.0041 123.879 74.1165C124.197 74.2291 124.535 74.277 124.871 74.2573C125.43 74.2638 125.987 74.1839 126.523 74.0202C127.02 73.8637 127.483 73.6142 127.889 73.2847C128.327 72.9134 128.658 72.4291 128.846 71.8834C129.086 71.1944 129.201 70.4672 129.185 69.7368V68.9484L124.675 69.6461C124.051 69.7278 123.464 69.9921 122.987 70.4065C122.772 70.6096 122.604 70.8571 122.494 71.132C122.384 71.407 122.334 71.7027 122.348 71.999V72.002Z" fill="#869ab8"/>
<path d="M136.076 76.988V59.5214H140.051V61.698C140.543 60.8308 141.289 60.1395 142.188 59.7197C143.11 59.2563 144.126 59.0148 145.157 59.0141C146.258 58.9939 147.346 59.2602 148.316 59.7874C149.232 60.2908 149.959 61.0819 150.388 62.0408C150.957 61.0652 151.781 60.2665 152.77 59.7326C153.758 59.1987 154.873 58.9501 155.993 59.0141C156.755 59.0084 157.512 59.1417 158.227 59.4078C158.93 59.6738 159.575 60.0723 160.13 60.5817C160.742 61.1604 161.208 61.8779 161.489 62.6747C161.838 63.6278 162.007 64.6378 161.991 65.6535V76.988H158.122V66.2844C158.169 65.3373 157.874 64.405 157.291 63.6613C156.976 63.3188 156.588 63.0523 156.157 62.8815C155.724 62.7108 155.26 62.6401 154.799 62.6747C154.313 62.6579 153.829 62.7494 153.381 62.9425C152.934 63.1358 152.535 63.4262 152.211 63.7928C151.541 64.5545 151.183 65.5467 151.215 66.5654V76.988H147.103V66.2844C147.147 65.3418 146.855 64.4143 146.28 63.6703C145.966 63.3235 145.577 63.0537 145.143 62.881C144.71 62.7082 144.244 62.6375 143.78 62.6737C143.292 62.6535 142.807 62.7411 142.356 62.9305C141.906 63.1199 141.503 63.4064 141.174 63.7699C140.505 64.5421 140.156 65.5436 140.195 66.5684V76.9909L136.076 76.988Z" fill="#869ab8"/>
<path d="M164.953 83.8054V59.521H168.962V61.8611C169.468 61.0099 170.208 60.3254 171.092 59.8908C172.132 59.3595 173.285 59.0944 174.449 59.1185C175.553 59.0648 176.655 59.2662 177.671 59.7073C178.686 60.1483 179.588 60.8174 180.309 61.6638C181.784 63.5184 182.542 65.851 182.442 68.2274C182.535 70.6333 181.741 72.9886 180.213 74.837C179.485 75.688 178.576 76.3627 177.554 76.8112C176.532 77.2597 175.423 77.4706 174.309 77.4281C173.22 77.4493 172.139 77.2182 171.15 76.7525C170.319 76.3722 169.6 75.7797 169.063 75.0333V83.8034L164.953 83.8054ZM169.031 68.2305C168.963 69.6831 169.425 71.1106 170.33 72.2419C170.738 72.7342 171.249 73.1272 171.829 73.3914C172.407 73.6554 173.038 73.7837 173.673 73.7667C174.309 73.7849 174.942 73.6581 175.523 73.3956C176.104 73.1332 176.618 72.7419 177.03 72.2508C177.938 71.1175 178.4 69.6862 178.328 68.2305C178.396 66.7986 177.937 65.3921 177.038 64.2818C176.624 63.7938 176.105 63.4062 175.522 63.1474C174.939 62.8887 174.306 62.7655 173.669 62.7869C173.036 62.7692 172.406 62.8955 171.828 63.1564C171.249 63.4175 170.736 63.8066 170.327 64.2948C169.428 65.399 168.967 66.8 169.031 68.2274V68.2305Z" fill="#869ab8"/>
<path d="M182.742 71.9658L186.317 70.9792C186.376 71.7747 186.745 72.5143 187.341 73.0372C188.04 73.6234 188.933 73.921 189.841 73.8703C190.516 73.909 191.187 73.7243 191.749 73.3442C191.961 73.2018 192.134 73.0092 192.255 72.7834C192.375 72.5574 192.439 72.3051 192.44 72.0485C192.441 71.8358 192.395 71.6255 192.307 71.4326C192.218 71.2397 192.089 71.0688 191.927 70.9324C191.487 70.5804 190.96 70.3544 190.404 70.2785L187.838 69.6965C186.518 69.4511 185.311 68.7854 184.394 67.7971C183.599 66.9001 183.168 65.7334 183.186 64.5302C183.186 63.7791 183.352 63.0373 183.671 62.3592C183.991 61.681 184.458 61.0835 185.035 60.6104C186.286 59.5128 187.899 58.9292 189.555 58.975C190.397 58.9654 191.235 59.0826 192.043 59.3228C192.692 59.5075 193.307 59.7973 193.863 60.1809C194.322 60.5141 194.729 60.9148 195.069 61.3698C195.369 61.7585 195.618 62.1838 195.813 62.6356C195.966 63.0089 196.074 63.3993 196.137 63.7985L192.741 64.7852C192.703 64.502 192.621 64.2265 192.499 63.969C192.357 63.6735 192.175 63.3987 191.961 63.1518C191.695 62.8555 191.363 62.6283 190.992 62.489C190.534 62.311 190.046 62.2243 189.555 62.2339C188.91 62.21 188.276 62.4189 187.768 62.823C187.551 62.9849 187.372 63.1959 187.249 63.4393C187.125 63.6826 187.059 63.9517 187.057 64.2252C187.055 64.4414 187.095 64.6557 187.178 64.8552C187.26 65.0547 187.382 65.2351 187.536 65.3851C187.89 65.7249 188.338 65.9481 188.819 66.0251L191.434 66.5682C192.799 66.794 194.062 67.4401 195.05 68.4179C195.873 69.2816 196.325 70.4398 196.305 71.6389C196.305 72.3614 196.166 73.0771 195.895 73.7458C195.615 74.437 195.216 75.0727 194.716 75.6234C194.15 76.231 193.456 76.7023 192.684 77.0027C191.789 77.3628 190.832 77.5412 189.867 77.5278C188.783 77.5452 187.705 77.3537 186.692 76.9638C185.855 76.6543 185.099 76.1579 184.48 75.5118C183.984 74.982 183.568 74.3808 183.247 73.7278C182.98 73.1742 182.809 72.5781 182.742 71.9658Z" fill="#869ab8"/>
<path d="M62.8899 59.2026C62.9079 59.1549 62.9207 59.1056 62.9284 59.0551C63.0532 58.1588 63.5101 57.3436 64.2069 56.7739C64.7004 56.3768 65.2906 56.121 65.9157 56.0334C65.9571 56.0272 65.9978 56.0168 66.0371 56.0025C66.1598 55.9897 66.2831 55.9834 66.4064 55.9836C67.2576 55.9786 68.0812 56.2881 68.7219 56.8539C69.3627 57.4198 69.7761 58.2028 69.8843 59.0551C69.8958 59.1903 69.9576 59.3161 70.0573 59.407C70.1569 59.498 70.287 59.5475 70.4213 59.5455H70.5488C70.6832 59.5479 70.8135 59.4987 70.9133 59.4075C71.0131 59.3165 71.0747 59.1905 71.0858 59.0551C71.1893 58.2048 71.5982 57.4225 72.2351 56.8564C72.8719 56.2901 73.6924 55.9796 74.541 55.9836C75.3922 55.9786 76.2158 56.2881 76.8565 56.8539C77.4973 57.4198 77.9107 58.2028 78.0189 59.0551C78.0303 59.1903 78.0921 59.3161 78.1919 59.407C78.2915 59.498 78.4216 59.5475 78.5559 59.5455H78.6547C78.7891 59.5479 78.9195 59.4987 79.0193 59.4075C79.119 59.3165 79.1807 59.1905 79.1917 59.0551C79.2992 58.2066 79.7094 57.4267 80.3454 56.8614C80.9813 56.296 81.7995 55.9839 82.647 55.9836C83.5626 55.9835 84.4419 56.3455 85.0962 56.9922C85.738 57.654 86.097 58.5436 86.0962 59.4698C86.0963 60.3254 85.7872 61.1519 85.2269 61.794C84.6666 62.4362 83.8936 62.8499 83.0527 62.9578C82.9187 62.969 82.7938 63.0312 82.7036 63.1319C82.6133 63.2327 82.5645 63.3643 82.5669 63.5001V63.5997C82.5649 63.7354 82.614 63.8666 82.7042 63.9673C82.7943 64.0679 82.9188 64.1302 83.0527 64.1418C83.8971 64.2506 84.6729 64.6677 85.2336 65.3144C85.7944 65.961 86.1012 66.7926 86.0962 67.6519C86.1002 68.5087 85.7924 69.3372 85.2314 69.9801C84.6704 70.6231 83.8951 71.0358 83.0527 71.14C82.9187 71.1512 82.7938 71.2134 82.7036 71.3141C82.6133 71.4148 82.5645 71.5465 82.5669 71.6822V71.8118C82.5652 71.9473 82.6143 72.0786 82.7044 72.1791C82.7945 72.2796 82.9189 72.3421 83.0527 72.3539C83.8971 72.4627 84.6729 72.8798 85.2336 73.5265C85.7944 74.1731 86.1012 75.0045 86.0962 75.864C86.0962 75.9795 86.0904 76.0932 86.0795 76.2058C86.0612 76.2535 86.0479 76.3028 86.04 76.3533C85.916 77.2497 85.4594 78.0652 84.7625 78.6345C84.2686 79.0317 83.678 79.2875 83.0527 79.375C83.0118 79.3816 82.9716 79.3916 82.9323 79.4049C82.8093 79.4182 82.6857 79.4248 82.5621 79.4248C81.7109 79.4298 80.8874 79.1202 80.2468 78.5544C79.6063 77.9886 79.1931 77.2056 79.0851 76.3533C79.0736 76.2182 79.0118 76.0925 78.9122 76.0014C78.8126 75.9104 78.6824 75.861 78.548 75.863H78.4197C78.2852 75.8605 78.1549 75.9099 78.0551 76.0009C77.9553 76.092 77.8936 76.2179 77.8827 76.3533C77.7794 77.2036 77.3705 77.9862 76.7336 78.5524C76.0967 79.1186 75.276 79.429 74.4275 79.4248C73.5762 79.4299 72.7526 79.1203 72.1119 78.5545C71.4712 77.9886 71.0577 77.2057 70.9496 76.3533C70.938 76.2182 70.8762 76.0925 70.7766 76.0014C70.677 75.9104 70.5468 75.861 70.4125 75.863H70.3138C70.1793 75.8605 70.0489 75.9099 69.9492 76.0009C69.8494 76.092 69.7877 76.2179 69.7766 76.3533C69.6695 77.2021 69.2595 77.9821 68.6235 78.5476C67.9874 79.1131 67.169 79.4249 66.3215 79.4248C65.4039 79.4262 64.5224 79.064 63.8662 78.4162C63.2249 77.7542 62.8662 76.8648 62.8672 75.9388C62.8672 75.0831 63.176 74.2569 63.7362 73.6148C64.2963 72.9727 65.0691 72.5587 65.9098 72.4506C66.044 72.4397 66.1691 72.3776 66.2596 72.2769C66.3499 72.1761 66.399 72.0444 66.3965 71.9084V71.8088C66.3982 71.6731 66.349 71.5417 66.2587 71.4411C66.1684 71.3405 66.0437 71.2782 65.9098 71.2666C65.0655 71.1576 64.29 70.7404 63.7295 70.0938C63.169 69.4472 62.8622 68.6158 62.8672 67.7566C62.8631 66.8998 63.1707 66.0714 63.7314 65.4284C64.2923 64.7854 65.0674 64.3726 65.9098 64.2684C66.044 64.2575 66.1691 64.1954 66.2596 64.0947C66.3499 63.994 66.399 63.8622 66.3965 63.7263V63.5967C66.3982 63.461 66.349 63.3296 66.2587 63.229C66.1684 63.1284 66.0437 63.0661 65.9098 63.0545C65.0655 62.9455 64.29 62.5283 63.7295 61.8817C63.169 61.2351 62.8622 60.4037 62.8672 59.5445C62.8672 59.4289 62.8731 59.3153 62.884 59.2026H62.8899ZM65.9187 54.8943C65.8759 54.8831 65.8324 54.8754 65.7884 54.8713C64.6245 55.0352 63.5647 55.6363 62.8209 56.5546C62.259 57.2304 61.8977 58.0525 61.7784 58.9265C61.7812 58.9645 61.7872 59.0022 61.7961 59.0392C61.781 59.1898 61.7734 59.3412 61.7734 59.4927C61.7806 60.333 62.0094 61.1562 62.4364 61.8776C62.8634 62.5989 63.4733 63.1923 64.2029 63.5967C63.473 64.0012 62.8632 64.5948 62.4361 65.3163C62.0092 66.0378 61.7804 66.8612 61.7734 67.7018C61.7806 68.5421 62.0094 69.3653 62.4364 70.0866C62.8634 70.808 63.4733 71.4014 64.2029 71.8058C63.4688 72.2051 62.8553 72.7974 62.4276 73.5202C61.9998 74.2428 61.7738 75.0689 61.7734 75.9107C61.7734 76.0413 61.7793 76.1699 61.7892 76.2985C61.7751 76.3579 61.7705 76.4191 61.7754 76.4799C61.911 77.5059 62.3789 78.4579 63.1061 79.1877C63.829 79.9218 64.772 80.3942 65.7884 80.5311C65.849 80.5361 65.9099 80.5314 65.9691 80.5172C66.0954 80.5281 66.2237 80.5331 66.353 80.5331C67.1868 80.5328 68.005 80.3046 68.7208 79.8728C69.4365 79.4409 70.0232 78.8216 70.4183 78.0804C70.8188 78.8172 71.4065 79.4329 72.1211 79.864C72.8357 80.2951 73.6513 80.5261 74.4837 80.5331C75.3163 80.5263 76.132 80.2954 76.8469 79.8643C77.5616 79.4332 78.1495 78.8173 78.55 78.0804C78.9504 78.8172 79.5382 79.4329 80.2528 79.864C80.9674 80.2951 81.7829 80.5261 82.6153 80.5331C82.7624 80.5331 82.9115 80.5261 83.0517 80.5122C83.0947 80.5235 83.1387 80.5309 83.183 80.5341C84.3449 80.3702 85.4027 79.7693 86.1446 78.8518C86.7068 78.1762 87.0686 77.354 87.1881 76.4799C87.1851 76.4419 87.1792 76.4043 87.1704 76.3673C87.1851 76.2178 87.192 76.0683 87.192 75.9139C87.1851 75.0735 86.9565 74.2504 86.5295 73.5291C86.1027 72.8077 85.4931 72.2142 84.7635 71.8098C85.4932 71.4052 86.1029 70.8116 86.5299 70.0901C86.9567 69.3685 87.1853 68.5452 87.192 67.7048C87.1851 66.8645 86.9565 66.0413 86.5295 65.32C86.1027 64.5986 85.4931 64.0051 84.7635 63.6007C85.4975 63.2012 86.1108 62.6089 86.5383 61.8861C86.9659 61.1634 87.1917 60.3374 87.192 59.4957C87.192 59.3651 87.1871 59.2355 87.1772 59.1079C87.1904 59.0485 87.195 58.9874 87.1911 58.9265C87.0558 57.9002 86.5875 56.948 85.8594 56.2188C85.1372 55.4843 84.1943 55.0118 83.1781 54.8753C83.1175 54.8703 83.0565 54.875 82.9974 54.8893C82.8711 54.8783 82.7426 54.8733 82.6133 54.8733C81.7795 54.8737 80.9614 55.1018 80.2456 55.5337C79.5299 55.9655 78.9433 56.5849 78.548 57.326C78.1475 56.5891 77.5596 55.9733 76.8449 55.5422C76.1301 55.1111 75.3143 54.8802 74.4817 54.8733C73.6493 54.8803 72.8338 55.1113 72.1192 55.5424C71.4045 55.9735 70.8168 56.5892 70.4164 57.326C70.0159 56.5891 69.428 55.9733 68.7132 55.5422C67.9984 55.1111 67.1827 54.8802 66.3501 54.8733C66.203 54.8733 66.0539 54.8803 65.9138 54.8943H65.9187Z" fill="#869ab8"/>
<path d="M83.2091 81.4088L83.1183 81.4018C83.0808 81.4018 83.0423 81.3938 83.0048 81.3889C82.8765 81.3978 82.7462 81.4028 82.6168 81.4028C81.6153 81.4014 80.6337 81.1202 79.7806 80.5906C79.3263 80.31 78.9139 79.9657 78.5554 79.5681C78.0395 80.1414 77.4114 80.6005 76.7109 80.9163C76.0102 81.2321 75.2524 81.3977 74.4852 81.4028C73.4837 81.4014 72.5021 81.1202 71.6489 80.5906C71.1961 80.3105 70.7847 79.9673 70.4268 79.5711C70.0718 79.968 69.6622 80.3113 69.2105 80.5906C68.3509 81.1218 67.3625 81.4028 66.3545 81.4028C66.24 81.4028 66.1246 81.4028 66.01 81.3919C65.915 81.4038 65.8191 81.4058 65.7237 81.3978H65.6991H65.6744C65.0686 81.3158 64.4804 81.133 63.9339 80.8567C63.4027 80.5874 62.9184 80.2331 62.4995 79.8073C62.0777 79.3848 61.727 78.8957 61.461 78.3592C61.1864 77.8077 61.0049 77.2139 60.924 76.6022V76.5772V76.5523C60.917 76.456 60.919 76.3593 60.9299 76.2634C60.923 76.1478 60.92 76.0311 60.92 75.9165C60.9196 74.899 61.1976 73.9012 61.7236 73.0333C61.9999 72.5765 62.3404 72.1626 62.7344 71.8045C62.3412 71.4436 62.0009 71.0282 61.7236 70.5707C61.1993 69.7093 60.9211 68.7184 60.92 67.7074C60.925 66.933 61.0889 66.1679 61.4016 65.4607C61.7142 64.7535 62.1688 64.1193 62.7364 63.5984C62.3425 63.2366 62.0015 62.8202 61.7236 62.3616C61.1993 61.5003 60.9211 60.5093 60.92 59.4983C60.92 59.3598 60.925 59.2203 60.9357 59.0818C60.9318 59.0539 60.9288 59.026 60.9268 58.9981L60.92 58.9064L60.9318 58.8146C61.0726 57.7799 61.5 56.8065 62.1648 56.0063C63.0443 54.9172 64.2996 54.205 65.6783 54.013L65.7691 54L65.8609 54.007C65.8985 54.007 65.936 54.015 65.9735 54.02C66.1028 54.011 66.2331 54.006 66.3614 54.006C67.3633 54.0078 68.3452 54.2888 69.1987 54.8183C69.6526 55.0989 70.0648 55.4432 70.4228 55.8408C70.9387 55.2675 71.5668 54.8084 72.2674 54.4926C72.968 54.1768 73.7259 54.0111 74.4931 54.006C75.4949 54.0078 76.4768 54.2888 77.3303 54.8183C77.7832 55.0985 78.1945 55.4417 78.5524 55.8378C78.9074 55.4409 79.317 55.0976 79.7687 54.8183C80.6284 54.2871 81.6167 54.0059 82.6247 54.006C82.7393 54.006 82.8547 54.006 82.9683 54.017C83.0635 54.005 83.1599 54.003 83.2555 54.011H83.2793H83.3039C83.9098 54.0929 84.4979 54.2757 85.0444 54.5521C85.576 54.8211 86.0608 55.1755 86.4798 55.6016C86.902 56.0237 87.2529 56.5129 87.5183 57.0496C87.7921 57.6013 87.9733 58.1951 88.0544 58.8067V58.8316V58.8565C88.0614 58.9529 88.0592 59.0497 88.0474 59.1456C88.0544 59.2612 88.0583 59.3767 88.0583 59.4923C88.0584 60.5099 87.78 61.5077 87.2538 62.3756C86.9778 62.8324 86.6376 63.2462 86.2438 63.6043C86.637 63.965 86.977 64.3805 87.2538 64.8382C87.7784 65.6994 88.0569 66.6904 88.0583 67.7014C88.0534 68.476 87.8893 69.2411 87.5765 69.9484C87.2637 70.6557 86.8089 71.2897 86.2408 71.8105C86.6348 72.1718 86.9758 72.5879 87.2538 73.0463C87.7782 73.9079 88.0566 74.8991 88.0583 75.9105C88.0583 76.0491 88.0534 76.1886 88.0425 76.3262C88.0425 76.3541 88.0494 76.383 88.0514 76.4108L88.0583 76.5025L88.0455 76.5942C87.9051 77.6288 87.4781 78.6024 86.8135 79.4027C85.9338 80.4918 84.678 81.2041 83.299 81.3958L83.2091 81.4088ZM79.9435 76.2504C80.0258 76.8917 80.338 77.4803 80.8212 77.9049C81.3043 78.3295 81.9249 78.5606 82.5655 78.5545C82.6356 78.5545 82.7047 78.5546 82.7738 78.5466C82.8202 78.5346 82.8666 78.5246 82.914 78.5167H82.9396C83.4091 78.4502 83.8524 78.2578 84.223 77.9596C84.7493 77.5302 85.0941 76.9149 85.1876 76.2384V76.2135C85.1972 76.1543 85.2101 76.0958 85.2261 76.0381C85.2261 75.9813 85.232 75.9235 85.232 75.8667C85.2377 75.2198 85.0087 74.5932 84.588 74.1053C84.1672 73.6174 83.584 73.302 82.9485 73.2186C82.6052 73.1825 82.2876 73.0188 82.0572 72.7592C81.827 72.4997 81.7006 72.1629 81.7027 71.8144V71.6849C81.7 71.3437 81.821 71.0134 82.0431 70.7564C82.2653 70.4993 82.5729 70.3333 82.9081 70.2896H82.9328H82.9584C83.588 70.2067 84.1661 69.8946 84.5841 69.412C85.0022 68.9296 85.2314 68.3096 85.229 67.6685C85.2349 67.0217 85.0057 66.3951 84.585 65.9072C84.1642 65.4193 83.581 65.1039 82.9456 65.0205C82.6023 64.9844 82.2846 64.8206 82.0543 64.5611C81.824 64.3016 81.6977 63.9648 81.6997 63.6163V63.5167C81.697 63.1755 81.8181 62.8452 82.0402 62.5882C82.2623 62.331 82.5699 62.1651 82.9051 62.1214H82.9297H82.9554C83.5823 62.032 84.1566 61.7182 84.5735 61.237C84.9902 60.7559 85.2219 60.1395 85.2261 59.5003C85.2276 58.8044 84.9594 58.1356 84.4787 57.6367C83.9846 57.1512 83.322 56.8805 82.6326 56.8822C81.9976 56.8798 81.3835 57.1112 80.9055 57.5332C80.4275 57.9552 80.1185 58.5388 80.0362 59.1745V59.2004V59.2253C79.9931 59.5636 79.8286 59.8742 79.5739 60.0985C79.3193 60.3226 78.9921 60.445 78.6542 60.4421H78.5554C78.2102 60.4443 77.8764 60.3167 77.6192 60.0842C77.3619 59.8519 77.1995 59.5311 77.1635 59.1844C77.081 58.5429 76.7685 57.9542 76.2853 57.5294C75.8019 57.1046 75.1813 56.8734 74.5405 56.8793C73.9055 56.8768 73.2915 57.1082 72.8134 57.5303C72.3354 57.9523 72.0263 58.5358 71.9442 59.1715V59.1974V59.2223C71.9009 59.5606 71.7364 59.8712 71.4818 60.0955C71.2271 60.3196 70.8999 60.4419 70.562 60.4391H70.4347C70.0894 60.4413 69.7557 60.3137 69.4985 60.0812C69.2412 59.8489 69.0787 59.5281 69.0427 59.1815C68.9602 58.5399 68.6478 57.9512 68.1645 57.5264C67.6811 57.1017 67.0604 56.8704 66.4197 56.8763C66.3505 56.8763 66.2805 56.8762 66.2113 56.8853C66.1659 56.8973 66.1187 56.9071 66.0713 56.9151H66.0455C65.576 56.9813 65.1327 57.1737 64.7622 57.4723C64.2353 57.9011 63.8904 58.5166 63.7977 59.1934V59.2183C63.788 59.2774 63.7751 59.336 63.7592 59.3937C63.7592 59.4505 63.7543 59.5083 63.7543 59.5651C63.7484 60.2118 63.9774 60.8383 64.3979 61.3262C64.8184 61.8141 65.4014 62.1296 66.0366 62.2131C66.3799 62.2492 66.6977 62.413 66.9279 62.6725C67.1583 62.9322 67.2846 63.2689 67.2825 63.6173V63.7469C67.2853 64.0879 67.1643 64.4181 66.9424 64.6751C66.7206 64.9322 66.4131 65.0983 66.0782 65.1421H66.0525H66.0268C65.397 65.2249 64.8189 65.5369 64.4008 66.0195C63.9827 66.5021 63.7536 67.1222 63.7562 67.7632C63.7502 68.4099 63.9791 69.0363 64.3997 69.5241C64.8203 70.0119 65.4034 70.3272 66.0386 70.4102C66.382 70.4469 66.6996 70.6109 66.9298 70.8705C67.1599 71.1302 67.2864 71.467 67.2845 71.8154V71.9151C67.2873 72.2561 67.1663 72.5863 66.9444 72.8433C66.7225 73.1004 66.4151 73.2665 66.0801 73.3103H66.0544H66.0288C65.4018 73.3998 64.8276 73.7136 64.4108 74.1948C63.994 74.676 63.7624 75.2922 63.7582 75.9315C63.7564 76.6271 64.0247 77.2957 64.5055 77.7941C64.9993 78.28 65.6621 78.5508 66.3515 78.5486C66.9847 78.5441 67.595 78.3102 68.0717 77.8894C68.5483 77.4688 68.8592 76.8892 68.9479 76.2564V76.2305L68.9529 76.2045C68.9963 75.8664 69.1608 75.556 69.4155 75.3319C69.6701 75.108 69.9973 74.9858 70.3349 74.9886H70.4337C70.7789 74.9865 71.1127 75.1141 71.37 75.3466C71.6272 75.579 71.7897 75.8997 71.8256 76.2464C71.9082 76.8877 72.2207 77.4764 72.704 77.901C73.1873 78.3256 73.808 78.5567 74.4486 78.5506C75.0838 78.5533 75.698 78.3219 76.176 77.8998C76.654 77.4778 76.963 76.8941 77.0451 76.2584V76.2325L77.05 76.2076C77.0931 75.8692 77.2576 75.5585 77.5123 75.3344C77.7669 75.1101 78.0941 74.9878 78.432 74.9906H78.5604C78.9044 74.9908 79.2362 75.1196 79.4917 75.3523C79.7471 75.585 79.9081 75.9049 79.9435 76.2504Z" fill="#869ab8"/>
<path d="M74.4965 71.1028C73.873 71.1046 73.2552 70.9815 72.679 70.7406C72.1029 70.4998 71.5798 70.1459 71.1401 69.6996C70.698 69.2556 70.3474 68.7275 70.1089 68.1459C69.8703 67.5643 69.7484 66.9406 69.75 66.3111C69.75 66.0289 69.861 65.7584 70.0586 65.5588C70.256 65.3592 70.524 65.2469 70.8034 65.2467C71.0829 65.2469 71.3508 65.3592 71.5484 65.5588C71.7458 65.7584 71.8568 66.0289 71.8568 66.3111C71.8578 67.0175 72.1363 67.6945 72.6311 68.194C73.126 68.6933 73.7969 68.9743 74.4965 68.9751C75.1963 68.9743 75.8671 68.6933 76.3619 68.194C76.8568 67.6945 77.1353 67.0175 77.1364 66.3111C77.1362 66.1714 77.1634 66.033 77.2162 65.9039C77.2691 65.7747 77.3467 65.6574 77.4445 65.5584C77.5423 65.4596 77.6585 65.3812 77.7863 65.3277C77.9142 65.2743 78.0513 65.2467 78.1897 65.2467C78.4691 65.2469 78.7371 65.3592 78.9346 65.5588C79.1321 65.7584 79.243 66.0289 79.243 66.3111C79.2448 66.9406 79.1227 67.5642 78.8841 68.1459C78.6456 68.7274 78.2951 69.2556 77.8531 69.6996C77.4132 70.1459 76.8902 70.4996 76.314 70.7406C75.7378 70.9814 75.1202 71.1046 74.4965 71.1028Z" fill="#869ab8"/>
</svg>
