<?xml version="1.0" encoding="UTF-8" standalone="no" ?>
<!DOCTYPE svg PUBLIC "-//W3C//DTD SVG 1.1//EN" "http://www.w3.org/Graphics/SVG/1.1/DTD/svg11.dtd">
<svg xmlns="http://www.w3.org/2000/svg" xmlns:xlink="http://www.w3.org/1999/xlink" version="1.1" width="600" height="600" viewBox="0 0 600 600" xml:space="preserve">
<desc>Created with Fabric.js 4.0.0-beta.8</desc>
<defs>
</defs>
<g transform="matrix(1 0 0 1 300.5 300.5)"  >
<rect style="stroke: none; stroke-width: 1; stroke-dasharray: none; stroke-linecap: butt; stroke-dashoffset: 0; stroke-linejoin: miter; stroke-miterlimit: 4; fill: rgb(255,255,255); fill-opacity: 0; fill-rule: nonzero; opacity: 1;"  x="-300" y="-300" rx="0" ry="0" width="600" height="600" />
</g>
<g transform="matrix(0.47 0 0 0.47 60 60)"  >
<circle style="stroke: none; stroke-width: 1; stroke-dasharray: none; stroke-linecap: butt; stroke-dashoffset: 0; stroke-linejoin: miter; stroke-miterlimit: 4; fill: rgb(0,0,0); fill-opacity: 0.12; fill-rule: nonzero; opacity: 1;"  cx="0" cy="0" r="16" />
</g>
<g transform="matrix(0.47 0 0 0.47 60 128)"  >
<circle style="stroke: none; stroke-width: 1; stroke-dasharray: none; stroke-linecap: butt; stroke-dashoffset: 0; stroke-linejoin: miter; stroke-miterlimit: 4; fill: rgb(0,0,0); fill-opacity: 0.12; fill-rule: nonzero; opacity: 1;"  cx="0" cy="0" r="16" />
</g>
<g transform="matrix(0.47 0 0 0.47 60 197)"  >
<circle style="stroke: none; stroke-width: 1; stroke-dasharray: none; stroke-linecap: butt; stroke-dashoffset: 0; stroke-linejoin: miter; stroke-miterlimit: 4; fill: rgb(0,0,0); fill-opacity: 0.12; fill-rule: nonzero; opacity: 1;"  cx="0" cy="0" r="16" />
</g>
<g transform="matrix(0.47 0 0 0.47 60 265)"  >
<circle style="stroke: none; stroke-width: 1; stroke-dasharray: none; stroke-linecap: butt; stroke-dashoffset: 0; stroke-linejoin: miter; stroke-miterlimit: 4; fill: rgb(0,0,0); fill-opacity: 0.12; fill-rule: nonzero; opacity: 1;"  cx="0" cy="0" r="16" />
</g>
<g transform="matrix(0.47 0 0 0.47 60 334)"  >
<circle style="stroke: none; stroke-width: 1; stroke-dasharray: none; stroke-linecap: butt; stroke-dashoffset: 0; stroke-linejoin: miter; stroke-miterlimit: 4; fill: rgb(0,0,0); fill-opacity: 0.12; fill-rule: nonzero; opacity: 1;"  cx="0" cy="0" r="16" />
</g>
<g transform="matrix(0.47 0 0 0.47 60 402)"  >
<circle style="stroke: none; stroke-width: 1; stroke-dasharray: none; stroke-linecap: butt; stroke-dashoffset: 0; stroke-linejoin: miter; stroke-miterlimit: 4; fill: rgb(0,0,0); fill-opacity: 0.12; fill-rule: nonzero; opacity: 1;"  cx="0" cy="0" r="16" />
</g>
<g transform="matrix(0.47 0 0 0.47 60 471)"  >
<circle style="stroke: none; stroke-width: 1; stroke-dasharray: none; stroke-linecap: butt; stroke-dashoffset: 0; stroke-linejoin: miter; stroke-miterlimit: 4; fill: rgb(0,0,0); fill-opacity: 0.12; fill-rule: nonzero; opacity: 1;"  cx="0" cy="0" r="16" />
</g>
<g transform="matrix(0.47 0 0 0.47 60 539)"  >
<circle style="stroke: none; stroke-width: 1; stroke-dasharray: none; stroke-linecap: butt; stroke-dashoffset: 0; stroke-linejoin: miter; stroke-miterlimit: 4; fill: rgb(0,0,0); fill-opacity: 0.12; fill-rule: nonzero; opacity: 1;"  cx="0" cy="0" r="16" />
</g>
<g transform="matrix(0.47 0 0 0.47 128 60)"  >
<circle style="stroke: none; stroke-width: 1; stroke-dasharray: none; stroke-linecap: butt; stroke-dashoffset: 0; stroke-linejoin: miter; stroke-miterlimit: 4; fill: rgb(0,0,0); fill-opacity: 0.12; fill-rule: nonzero; opacity: 1;"  cx="0" cy="0" r="16" />
</g>
<g transform="matrix(0.47 0 0 0.47 128 128)"  >
<circle style="stroke: none; stroke-width: 1; stroke-dasharray: none; stroke-linecap: butt; stroke-dashoffset: 0; stroke-linejoin: miter; stroke-miterlimit: 4; fill: rgb(0,0,0); fill-opacity: 0.12; fill-rule: nonzero; opacity: 1;"  cx="0" cy="0" r="16" />
</g>
<g transform="matrix(0.47 0 0 0.47 128 197)"  >
<circle style="stroke: none; stroke-width: 1; stroke-dasharray: none; stroke-linecap: butt; stroke-dashoffset: 0; stroke-linejoin: miter; stroke-miterlimit: 4; fill: rgb(0,0,0); fill-opacity: 0.12; fill-rule: nonzero; opacity: 1;"  cx="0" cy="0" r="16" />
</g>
<g transform="matrix(0.47 0 0 0.47 128 265)"  >
<circle style="stroke: none; stroke-width: 1; stroke-dasharray: none; stroke-linecap: butt; stroke-dashoffset: 0; stroke-linejoin: miter; stroke-miterlimit: 4; fill: rgb(0,0,0); fill-opacity: 0.12; fill-rule: nonzero; opacity: 1;"  cx="0" cy="0" r="16" />
</g>
<g transform="matrix(0.47 0 0 0.47 128 334)"  >
<circle style="stroke: none; stroke-width: 1; stroke-dasharray: none; stroke-linecap: butt; stroke-dashoffset: 0; stroke-linejoin: miter; stroke-miterlimit: 4; fill: rgb(0,0,0); fill-opacity: 0.12; fill-rule: nonzero; opacity: 1;"  cx="0" cy="0" r="16" />
</g>
<g transform="matrix(0.47 0 0 0.47 128 402)"  >
<circle style="stroke: none; stroke-width: 1; stroke-dasharray: none; stroke-linecap: butt; stroke-dashoffset: 0; stroke-linejoin: miter; stroke-miterlimit: 4; fill: rgb(0,0,0); fill-opacity: 0.12; fill-rule: nonzero; opacity: 1;"  cx="0" cy="0" r="16" />
</g>
<g transform="matrix(0.47 0 0 0.47 128 471)"  >
<circle style="stroke: none; stroke-width: 1; stroke-dasharray: none; stroke-linecap: butt; stroke-dashoffset: 0; stroke-linejoin: miter; stroke-miterlimit: 4; fill: rgb(0,0,0); fill-opacity: 0.12; fill-rule: nonzero; opacity: 1;"  cx="0" cy="0" r="16" />
</g>
<g transform="matrix(0.47 0 0 0.47 128 539)"  >
<circle style="stroke: none; stroke-width: 1; stroke-dasharray: none; stroke-linecap: butt; stroke-dashoffset: 0; stroke-linejoin: miter; stroke-miterlimit: 4; fill: rgb(0,0,0); fill-opacity: 0.12; fill-rule: nonzero; opacity: 1;"  cx="0" cy="0" r="16" />
</g>
<g transform="matrix(0.47 0 0 0.47 197 60)"  >
<circle style="stroke: none; stroke-width: 1; stroke-dasharray: none; stroke-linecap: butt; stroke-dashoffset: 0; stroke-linejoin: miter; stroke-miterlimit: 4; fill: rgb(0,0,0); fill-opacity: 0.12; fill-rule: nonzero; opacity: 1;"  cx="0" cy="0" r="16" />
</g>
<g transform="matrix(0.47 0 0 0.47 197 128)"  >
<circle style="stroke: none; stroke-width: 1; stroke-dasharray: none; stroke-linecap: butt; stroke-dashoffset: 0; stroke-linejoin: miter; stroke-miterlimit: 4; fill: rgb(0,0,0); fill-opacity: 0.12; fill-rule: nonzero; opacity: 1;"  cx="0" cy="0" r="16" />
</g>
<g transform="matrix(0.47 0 0 0.47 197 197)"  >
<circle style="stroke: none; stroke-width: 1; stroke-dasharray: none; stroke-linecap: butt; stroke-dashoffset: 0; stroke-linejoin: miter; stroke-miterlimit: 4; fill: rgb(0,0,0); fill-opacity: 0.12; fill-rule: nonzero; opacity: 1;"  cx="0" cy="0" r="16" />
</g>
<g transform="matrix(0.47 0 0 0.47 197 265)"  >
<circle style="stroke: none; stroke-width: 1; stroke-dasharray: none; stroke-linecap: butt; stroke-dashoffset: 0; stroke-linejoin: miter; stroke-miterlimit: 4; fill: rgb(0,0,0); fill-opacity: 0.12; fill-rule: nonzero; opacity: 1;"  cx="0" cy="0" r="16" />
</g>
<g transform="matrix(0.47 0 0 0.47 197 334)"  >
<circle style="stroke: none; stroke-width: 1; stroke-dasharray: none; stroke-linecap: butt; stroke-dashoffset: 0; stroke-linejoin: miter; stroke-miterlimit: 4; fill: rgb(0,0,0); fill-opacity: 0.12; fill-rule: nonzero; opacity: 1;"  cx="0" cy="0" r="16" />
</g>
<g transform="matrix(0.47 0 0 0.47 197 402)"  >
<circle style="stroke: none; stroke-width: 1; stroke-dasharray: none; stroke-linecap: butt; stroke-dashoffset: 0; stroke-linejoin: miter; stroke-miterlimit: 4; fill: rgb(0,0,0); fill-opacity: 0.12; fill-rule: nonzero; opacity: 1;"  cx="0" cy="0" r="16" />
</g>
<g transform="matrix(0.47 0 0 0.47 197 471)"  >
<circle style="stroke: none; stroke-width: 1; stroke-dasharray: none; stroke-linecap: butt; stroke-dashoffset: 0; stroke-linejoin: miter; stroke-miterlimit: 4; fill: rgb(0,0,0); fill-opacity: 0.12; fill-rule: nonzero; opacity: 1;"  cx="0" cy="0" r="16" />
</g>
<g transform="matrix(0.47 0 0 0.47 197 539)"  >
<circle style="stroke: none; stroke-width: 1; stroke-dasharray: none; stroke-linecap: butt; stroke-dashoffset: 0; stroke-linejoin: miter; stroke-miterlimit: 4; fill: rgb(0,0,0); fill-opacity: 0.12; fill-rule: nonzero; opacity: 1;"  cx="0" cy="0" r="16" />
</g>
<g transform="matrix(0.47 0 0 0.47 265 60)"  >
<circle style="stroke: none; stroke-width: 1; stroke-dasharray: none; stroke-linecap: butt; stroke-dashoffset: 0; stroke-linejoin: miter; stroke-miterlimit: 4; fill: rgb(0,0,0); fill-opacity: 0.12; fill-rule: nonzero; opacity: 1;"  cx="0" cy="0" r="16" />
</g>
<g transform="matrix(0.47 0 0 0.47 265 128)"  >
<circle style="stroke: none; stroke-width: 1; stroke-dasharray: none; stroke-linecap: butt; stroke-dashoffset: 0; stroke-linejoin: miter; stroke-miterlimit: 4; fill: rgb(0,0,0); fill-opacity: 0.12; fill-rule: nonzero; opacity: 1;"  cx="0" cy="0" r="16" />
</g>
<g transform="matrix(0.47 0 0 0.47 265 197)"  >
<circle style="stroke: none; stroke-width: 1; stroke-dasharray: none; stroke-linecap: butt; stroke-dashoffset: 0; stroke-linejoin: miter; stroke-miterlimit: 4; fill: rgb(0,0,0); fill-opacity: 0.12; fill-rule: nonzero; opacity: 1;"  cx="0" cy="0" r="16" />
</g>
<g transform="matrix(0.47 0 0 0.47 265 265)"  >
<circle style="stroke: none; stroke-width: 1; stroke-dasharray: none; stroke-linecap: butt; stroke-dashoffset: 0; stroke-linejoin: miter; stroke-miterlimit: 4; fill: rgb(0,0,0); fill-opacity: 0.12; fill-rule: nonzero; opacity: 1;"  cx="0" cy="0" r="16" />
</g>
<g transform="matrix(0.47 0 0 0.47 265 334)"  >
<circle style="stroke: none; stroke-width: 1; stroke-dasharray: none; stroke-linecap: butt; stroke-dashoffset: 0; stroke-linejoin: miter; stroke-miterlimit: 4; fill: rgb(0,0,0); fill-opacity: 0.12; fill-rule: nonzero; opacity: 1;"  cx="0" cy="0" r="16" />
</g>
<g transform="matrix(0.47 0 0 0.47 265 402)"  >
<circle style="stroke: none; stroke-width: 1; stroke-dasharray: none; stroke-linecap: butt; stroke-dashoffset: 0; stroke-linejoin: miter; stroke-miterlimit: 4; fill: rgb(0,0,0); fill-opacity: 0.12; fill-rule: nonzero; opacity: 1;"  cx="0" cy="0" r="16" />
</g>
<g transform="matrix(0.47 0 0 0.47 265 471)"  >
<circle style="stroke: none; stroke-width: 1; stroke-dasharray: none; stroke-linecap: butt; stroke-dashoffset: 0; stroke-linejoin: miter; stroke-miterlimit: 4; fill: rgb(0,0,0); fill-opacity: 0.12; fill-rule: nonzero; opacity: 1;"  cx="0" cy="0" r="16" />
</g>
<g transform="matrix(0.47 0 0 0.47 265 539)"  >
<circle style="stroke: none; stroke-width: 1; stroke-dasharray: none; stroke-linecap: butt; stroke-dashoffset: 0; stroke-linejoin: miter; stroke-miterlimit: 4; fill: rgb(0,0,0); fill-opacity: 0.12; fill-rule: nonzero; opacity: 1;"  cx="0" cy="0" r="16" />
</g>
<g transform="matrix(0.47 0 0 0.47 334 60)"  >
<circle style="stroke: none; stroke-width: 1; stroke-dasharray: none; stroke-linecap: butt; stroke-dashoffset: 0; stroke-linejoin: miter; stroke-miterlimit: 4; fill: rgb(0,0,0); fill-opacity: 0.12; fill-rule: nonzero; opacity: 1;"  cx="0" cy="0" r="16" />
</g>
<g transform="matrix(0.47 0 0 0.47 334 128)"  >
<circle style="stroke: none; stroke-width: 1; stroke-dasharray: none; stroke-linecap: butt; stroke-dashoffset: 0; stroke-linejoin: miter; stroke-miterlimit: 4; fill: rgb(0,0,0); fill-opacity: 0.12; fill-rule: nonzero; opacity: 1;"  cx="0" cy="0" r="16" />
</g>
<g transform="matrix(0.47 0 0 0.47 334 197)"  >
<circle style="stroke: none; stroke-width: 1; stroke-dasharray: none; stroke-linecap: butt; stroke-dashoffset: 0; stroke-linejoin: miter; stroke-miterlimit: 4; fill: rgb(0,0,0); fill-opacity: 0.12; fill-rule: nonzero; opacity: 1;"  cx="0" cy="0" r="16" />
</g>
<g transform="matrix(0.47 0 0 0.47 334 265)"  >
<circle style="stroke: none; stroke-width: 1; stroke-dasharray: none; stroke-linecap: butt; stroke-dashoffset: 0; stroke-linejoin: miter; stroke-miterlimit: 4; fill: rgb(0,0,0); fill-opacity: 0.12; fill-rule: nonzero; opacity: 1;"  cx="0" cy="0" r="16" />
</g>
<g transform="matrix(0.47 0 0 0.47 334 334)"  >
<circle style="stroke: none; stroke-width: 1; stroke-dasharray: none; stroke-linecap: butt; stroke-dashoffset: 0; stroke-linejoin: miter; stroke-miterlimit: 4; fill: rgb(0,0,0); fill-opacity: 0.12; fill-rule: nonzero; opacity: 1;"  cx="0" cy="0" r="16" />
</g>
<g transform="matrix(0.47 0 0 0.47 334 402)"  >
<circle style="stroke: none; stroke-width: 1; stroke-dasharray: none; stroke-linecap: butt; stroke-dashoffset: 0; stroke-linejoin: miter; stroke-miterlimit: 4; fill: rgb(0,0,0); fill-opacity: 0.12; fill-rule: nonzero; opacity: 1;"  cx="0" cy="0" r="16" />
</g>
<g transform="matrix(0.47 0 0 0.47 334 471)"  >
<circle style="stroke: none; stroke-width: 1; stroke-dasharray: none; stroke-linecap: butt; stroke-dashoffset: 0; stroke-linejoin: miter; stroke-miterlimit: 4; fill: rgb(0,0,0); fill-opacity: 0.12; fill-rule: nonzero; opacity: 1;"  cx="0" cy="0" r="16" />
</g>
<g transform="matrix(0.47 0 0 0.47 334 539)"  >
<circle style="stroke: none; stroke-width: 1; stroke-dasharray: none; stroke-linecap: butt; stroke-dashoffset: 0; stroke-linejoin: miter; stroke-miterlimit: 4; fill: rgb(0,0,0); fill-opacity: 0.12; fill-rule: nonzero; opacity: 1;"  cx="0" cy="0" r="16" />
</g>
<g transform="matrix(0.47 0 0 0.47 402 60)"  >
<circle style="stroke: none; stroke-width: 1; stroke-dasharray: none; stroke-linecap: butt; stroke-dashoffset: 0; stroke-linejoin: miter; stroke-miterlimit: 4; fill: rgb(0,0,0); fill-opacity: 0.12; fill-rule: nonzero; opacity: 1;"  cx="0" cy="0" r="16" />
</g>
<g transform="matrix(0.47 0 0 0.47 402 128)"  >
<circle style="stroke: none; stroke-width: 1; stroke-dasharray: none; stroke-linecap: butt; stroke-dashoffset: 0; stroke-linejoin: miter; stroke-miterlimit: 4; fill: rgb(0,0,0); fill-opacity: 0.12; fill-rule: nonzero; opacity: 1;"  cx="0" cy="0" r="16" />
</g>
<g transform="matrix(0.47 0 0 0.47 402 197)"  >
<circle style="stroke: none; stroke-width: 1; stroke-dasharray: none; stroke-linecap: butt; stroke-dashoffset: 0; stroke-linejoin: miter; stroke-miterlimit: 4; fill: rgb(0,0,0); fill-opacity: 0.12; fill-rule: nonzero; opacity: 1;"  cx="0" cy="0" r="16" />
</g>
<g transform="matrix(0.47 0 0 0.47 402 265)"  >
<circle style="stroke: none; stroke-width: 1; stroke-dasharray: none; stroke-linecap: butt; stroke-dashoffset: 0; stroke-linejoin: miter; stroke-miterlimit: 4; fill: rgb(0,0,0); fill-opacity: 0.12; fill-rule: nonzero; opacity: 1;"  cx="0" cy="0" r="16" />
</g>
<g transform="matrix(0.47 0 0 0.47 402 334)"  >
<circle style="stroke: none; stroke-width: 1; stroke-dasharray: none; stroke-linecap: butt; stroke-dashoffset: 0; stroke-linejoin: miter; stroke-miterlimit: 4; fill: rgb(0,0,0); fill-opacity: 0.12; fill-rule: nonzero; opacity: 1;"  cx="0" cy="0" r="16" />
</g>
<g transform="matrix(0.47 0 0 0.47 402 402)"  >
<circle style="stroke: none; stroke-width: 1; stroke-dasharray: none; stroke-linecap: butt; stroke-dashoffset: 0; stroke-linejoin: miter; stroke-miterlimit: 4; fill: rgb(0,0,0); fill-opacity: 0.12; fill-rule: nonzero; opacity: 1;"  cx="0" cy="0" r="16" />
</g>
<g transform="matrix(0.47 0 0 0.47 402 471)"  >
<circle style="stroke: none; stroke-width: 1; stroke-dasharray: none; stroke-linecap: butt; stroke-dashoffset: 0; stroke-linejoin: miter; stroke-miterlimit: 4; fill: rgb(0,0,0); fill-opacity: 0.12; fill-rule: nonzero; opacity: 1;"  cx="0" cy="0" r="16" />
</g>
<g transform="matrix(0.47 0 0 0.47 402 539)"  >
<circle style="stroke: none; stroke-width: 1; stroke-dasharray: none; stroke-linecap: butt; stroke-dashoffset: 0; stroke-linejoin: miter; stroke-miterlimit: 4; fill: rgb(0,0,0); fill-opacity: 0.12; fill-rule: nonzero; opacity: 1;"  cx="0" cy="0" r="16" />
</g>
<g transform="matrix(0.47 0 0 0.47 471 60)"  >
<circle style="stroke: none; stroke-width: 1; stroke-dasharray: none; stroke-linecap: butt; stroke-dashoffset: 0; stroke-linejoin: miter; stroke-miterlimit: 4; fill: rgb(0,0,0); fill-opacity: 0.12; fill-rule: nonzero; opacity: 1;"  cx="0" cy="0" r="16" />
</g>
<g transform="matrix(0.47 0 0 0.47 471 128)"  >
<circle style="stroke: none; stroke-width: 1; stroke-dasharray: none; stroke-linecap: butt; stroke-dashoffset: 0; stroke-linejoin: miter; stroke-miterlimit: 4; fill: rgb(0,0,0); fill-opacity: 0.12; fill-rule: nonzero; opacity: 1;"  cx="0" cy="0" r="16" />
</g>
<g transform="matrix(0.47 0 0 0.47 471 197)"  >
<circle style="stroke: none; stroke-width: 1; stroke-dasharray: none; stroke-linecap: butt; stroke-dashoffset: 0; stroke-linejoin: miter; stroke-miterlimit: 4; fill: rgb(0,0,0); fill-opacity: 0.12; fill-rule: nonzero; opacity: 1;"  cx="0" cy="0" r="16" />
</g>
<g transform="matrix(0.47 0 0 0.47 471 265)"  >
<circle style="stroke: none; stroke-width: 1; stroke-dasharray: none; stroke-linecap: butt; stroke-dashoffset: 0; stroke-linejoin: miter; stroke-miterlimit: 4; fill: rgb(0,0,0); fill-opacity: 0.12; fill-rule: nonzero; opacity: 1;"  cx="0" cy="0" r="16" />
</g>
<g transform="matrix(0.47 0 0 0.47 471 334)"  >
<circle style="stroke: none; stroke-width: 1; stroke-dasharray: none; stroke-linecap: butt; stroke-dashoffset: 0; stroke-linejoin: miter; stroke-miterlimit: 4; fill: rgb(0,0,0); fill-opacity: 0.12; fill-rule: nonzero; opacity: 1;"  cx="0" cy="0" r="16" />
</g>
<g transform="matrix(0.47 0 0 0.47 471 402)"  >
<circle style="stroke: none; stroke-width: 1; stroke-dasharray: none; stroke-linecap: butt; stroke-dashoffset: 0; stroke-linejoin: miter; stroke-miterlimit: 4; fill: rgb(0,0,0); fill-opacity: 0.12; fill-rule: nonzero; opacity: 1;"  cx="0" cy="0" r="16" />
</g>
<g transform="matrix(0.47 0 0 0.47 471 471)"  >
<circle style="stroke: none; stroke-width: 1; stroke-dasharray: none; stroke-linecap: butt; stroke-dashoffset: 0; stroke-linejoin: miter; stroke-miterlimit: 4; fill: rgb(0,0,0); fill-opacity: 0.12; fill-rule: nonzero; opacity: 1;"  cx="0" cy="0" r="16" />
</g>
<g transform="matrix(0.47 0 0 0.47 471 539)"  >
<circle style="stroke: none; stroke-width: 1; stroke-dasharray: none; stroke-linecap: butt; stroke-dashoffset: 0; stroke-linejoin: miter; stroke-miterlimit: 4; fill: rgb(0,0,0); fill-opacity: 0.12; fill-rule: nonzero; opacity: 1;"  cx="0" cy="0" r="16" />
</g>
<g transform="matrix(0.47 0 0 0.47 539 60)"  >
<circle style="stroke: none; stroke-width: 1; stroke-dasharray: none; stroke-linecap: butt; stroke-dashoffset: 0; stroke-linejoin: miter; stroke-miterlimit: 4; fill: rgb(0,0,0); fill-opacity: 0.12; fill-rule: nonzero; opacity: 1;"  cx="0" cy="0" r="16" />
</g>
<g transform="matrix(0.47 0 0 0.47 539 128)"  >
<circle style="stroke: none; stroke-width: 1; stroke-dasharray: none; stroke-linecap: butt; stroke-dashoffset: 0; stroke-linejoin: miter; stroke-miterlimit: 4; fill: rgb(0,0,0); fill-opacity: 0.12; fill-rule: nonzero; opacity: 1;"  cx="0" cy="0" r="16" />
</g>
<g transform="matrix(0.47 0 0 0.47 539 197)"  >
<circle style="stroke: none; stroke-width: 1; stroke-dasharray: none; stroke-linecap: butt; stroke-dashoffset: 0; stroke-linejoin: miter; stroke-miterlimit: 4; fill: rgb(0,0,0); fill-opacity: 0.12; fill-rule: nonzero; opacity: 1;"  cx="0" cy="0" r="16" />
</g>
<g transform="matrix(0.47 0 0 0.47 539 265)"  >
<circle style="stroke: none; stroke-width: 1; stroke-dasharray: none; stroke-linecap: butt; stroke-dashoffset: 0; stroke-linejoin: miter; stroke-miterlimit: 4; fill: rgb(0,0,0); fill-opacity: 0.12; fill-rule: nonzero; opacity: 1;"  cx="0" cy="0" r="16" />
</g>
<g transform="matrix(0.47 0 0 0.47 539 334)"  >
<circle style="stroke: none; stroke-width: 1; stroke-dasharray: none; stroke-linecap: butt; stroke-dashoffset: 0; stroke-linejoin: miter; stroke-miterlimit: 4; fill: rgb(0,0,0); fill-opacity: 0.12; fill-rule: nonzero; opacity: 1;"  cx="0" cy="0" r="16" />
</g>
<g transform="matrix(0.47 0 0 0.47 539 402)"  >
<circle style="stroke: none; stroke-width: 1; stroke-dasharray: none; stroke-linecap: butt; stroke-dashoffset: 0; stroke-linejoin: miter; stroke-miterlimit: 4; fill: rgb(0,0,0); fill-opacity: 0.12; fill-rule: nonzero; opacity: 1;"  cx="0" cy="0" r="16" />
</g>
<g transform="matrix(0.47 0 0 0.47 539 471)"  >
<circle style="stroke: none; stroke-width: 1; stroke-dasharray: none; stroke-linecap: butt; stroke-dashoffset: 0; stroke-linejoin: miter; stroke-miterlimit: 4; fill: rgb(0,0,0); fill-opacity: 0.12; fill-rule: nonzero; opacity: 1;"  cx="0" cy="0" r="16" />
</g>
<g transform="matrix(0.47 0 0 0.47 539 539)"  >
<circle style="stroke: none; stroke-width: 1; stroke-dasharray: none; stroke-linecap: butt; stroke-dashoffset: 0; stroke-linejoin: miter; stroke-miterlimit: 4; fill: rgb(0,0,0); fill-opacity: 0.12; fill-rule: nonzero; opacity: 1;"  cx="0" cy="0" r="16" />
</g>
</svg>