<?xml version="1.0" encoding="UTF-8" standalone="no" ?>
<!DOCTYPE svg PUBLIC "-//W3C//DTD SVG 1.1//EN" "http://www.w3.org/Graphics/SVG/1.1/DTD/svg11.dtd">
<svg xmlns="http://www.w3.org/2000/svg" xmlns:xlink="http://www.w3.org/1999/xlink" version="1.1" width="600" height="600" viewBox="0 0 600 600" xml:space="preserve">
<desc>Created with Fabric.js 4.0.0-beta.8</desc>
<defs>
</defs>
<g transform="matrix(1 0 0 1 300.5 300.5)"  >
<rect style="stroke: none; stroke-width: 1; stroke-dasharray: none; stroke-linecap: butt; stroke-dashoffset: 0; stroke-linejoin: miter; stroke-miterlimit: 4; fill: rgb(0,0,0); fill-opacity: 0; fill-rule: nonzero; opacity: 1;"  x="-300" y="-300" rx="0" ry="0" width="600" height="600" />
</g>
<g transform="matrix(0.31 0 0 0.31 60 60)"  >
<circle style="stroke: none; stroke-width: 1; stroke-dasharray: none; stroke-linecap: butt; stroke-dashoffset: 0; stroke-linejoin: miter; stroke-miterlimit: 4; fill: rgb(99,99,133); fill-opacity: 0.42; fill-rule: nonzero; opacity: 1;"  cx="0" cy="0" r="16" />
</g>
<g transform="matrix(0.31 0 0 0.31 60 113)"  >
<circle style="stroke: none; stroke-width: 1; stroke-dasharray: none; stroke-linecap: butt; stroke-dashoffset: 0; stroke-linejoin: miter; stroke-miterlimit: 4; fill: rgb(99,99,133); fill-opacity: 0.42; fill-rule: nonzero; opacity: 1;"  cx="0" cy="0" r="16" />
</g>
<g transform="matrix(0.31 0 0 0.31 60 166)"  >
<circle style="stroke: none; stroke-width: 1; stroke-dasharray: none; stroke-linecap: butt; stroke-dashoffset: 0; stroke-linejoin: miter; stroke-miterlimit: 4; fill: rgb(99,99,133); fill-opacity: 0.42; fill-rule: nonzero; opacity: 1;"  cx="0" cy="0" r="16" />
</g>
<g transform="matrix(0.31 0 0 0.31 60 220)"  >
<circle style="stroke: none; stroke-width: 1; stroke-dasharray: none; stroke-linecap: butt; stroke-dashoffset: 0; stroke-linejoin: miter; stroke-miterlimit: 4; fill: rgb(99,99,133); fill-opacity: 0.42; fill-rule: nonzero; opacity: 1;"  cx="0" cy="0" r="16" />
</g>
<g transform="matrix(0.31 0 0 0.31 60 273)"  >
<circle style="stroke: none; stroke-width: 1; stroke-dasharray: none; stroke-linecap: butt; stroke-dashoffset: 0; stroke-linejoin: miter; stroke-miterlimit: 4; fill: rgb(99,99,133); fill-opacity: 0.42; fill-rule: nonzero; opacity: 1;"  cx="0" cy="0" r="16" />
</g>
<g transform="matrix(0.31 0 0 0.31 60 326)"  >
<circle style="stroke: none; stroke-width: 1; stroke-dasharray: none; stroke-linecap: butt; stroke-dashoffset: 0; stroke-linejoin: miter; stroke-miterlimit: 4; fill: rgb(99,99,133); fill-opacity: 0.42; fill-rule: nonzero; opacity: 1;"  cx="0" cy="0" r="16" />
</g>
<g transform="matrix(0.31 0 0 0.31 60 380)"  >
<circle style="stroke: none; stroke-width: 1; stroke-dasharray: none; stroke-linecap: butt; stroke-dashoffset: 0; stroke-linejoin: miter; stroke-miterlimit: 4; fill: rgb(99,99,133); fill-opacity: 0.42; fill-rule: nonzero; opacity: 1;"  cx="0" cy="0" r="16" />
</g>
<g transform="matrix(0.31 0 0 0.31 60 433)"  >
<circle style="stroke: none; stroke-width: 1; stroke-dasharray: none; stroke-linecap: butt; stroke-dashoffset: 0; stroke-linejoin: miter; stroke-miterlimit: 4; fill: rgb(99,99,133); fill-opacity: 0.42; fill-rule: nonzero; opacity: 1;"  cx="0" cy="0" r="16" />
</g>
<g transform="matrix(0.31 0 0 0.31 60 486)"  >
<circle style="stroke: none; stroke-width: 1; stroke-dasharray: none; stroke-linecap: butt; stroke-dashoffset: 0; stroke-linejoin: miter; stroke-miterlimit: 4; fill: rgb(99,99,133); fill-opacity: 0.42; fill-rule: nonzero; opacity: 1;"  cx="0" cy="0" r="16" />
</g>
<g transform="matrix(0.31 0 0 0.31 60 539)"  >
<circle style="stroke: none; stroke-width: 1; stroke-dasharray: none; stroke-linecap: butt; stroke-dashoffset: 0; stroke-linejoin: miter; stroke-miterlimit: 4; fill: rgb(99,99,133); fill-opacity: 0.42; fill-rule: nonzero; opacity: 1;"  cx="0" cy="0" r="16" />
</g>
<g transform="matrix(0.31 0 0 0.31 113 60)"  >
<circle style="stroke: none; stroke-width: 1; stroke-dasharray: none; stroke-linecap: butt; stroke-dashoffset: 0; stroke-linejoin: miter; stroke-miterlimit: 4; fill: rgb(99,99,133); fill-opacity: 0.42; fill-rule: nonzero; opacity: 1;"  cx="0" cy="0" r="16" />
</g>
<g transform="matrix(0.31 0 0 0.31 113 113)"  >
<circle style="stroke: none; stroke-width: 1; stroke-dasharray: none; stroke-linecap: butt; stroke-dashoffset: 0; stroke-linejoin: miter; stroke-miterlimit: 4; fill: rgb(99,99,133); fill-opacity: 0.42; fill-rule: nonzero; opacity: 1;"  cx="0" cy="0" r="16" />
</g>
<g transform="matrix(0.31 0 0 0.31 113 166)"  >
<circle style="stroke: none; stroke-width: 1; stroke-dasharray: none; stroke-linecap: butt; stroke-dashoffset: 0; stroke-linejoin: miter; stroke-miterlimit: 4; fill: rgb(99,99,133); fill-opacity: 0.42; fill-rule: nonzero; opacity: 1;"  cx="0" cy="0" r="16" />
</g>
<g transform="matrix(0.31 0 0 0.31 113 220)"  >
<circle style="stroke: none; stroke-width: 1; stroke-dasharray: none; stroke-linecap: butt; stroke-dashoffset: 0; stroke-linejoin: miter; stroke-miterlimit: 4; fill: rgb(99,99,133); fill-opacity: 0.42; fill-rule: nonzero; opacity: 1;"  cx="0" cy="0" r="16" />
</g>
<g transform="matrix(0.31 0 0 0.31 113 273)"  >
<circle style="stroke: none; stroke-width: 1; stroke-dasharray: none; stroke-linecap: butt; stroke-dashoffset: 0; stroke-linejoin: miter; stroke-miterlimit: 4; fill: rgb(99,99,133); fill-opacity: 0.42; fill-rule: nonzero; opacity: 1;"  cx="0" cy="0" r="16" />
</g>
<g transform="matrix(0.31 0 0 0.31 113 326)"  >
<circle style="stroke: none; stroke-width: 1; stroke-dasharray: none; stroke-linecap: butt; stroke-dashoffset: 0; stroke-linejoin: miter; stroke-miterlimit: 4; fill: rgb(99,99,133); fill-opacity: 0.42; fill-rule: nonzero; opacity: 1;"  cx="0" cy="0" r="16" />
</g>
<g transform="matrix(0.31 0 0 0.31 113 380)"  >
<circle style="stroke: none; stroke-width: 1; stroke-dasharray: none; stroke-linecap: butt; stroke-dashoffset: 0; stroke-linejoin: miter; stroke-miterlimit: 4; fill: rgb(99,99,133); fill-opacity: 0.42; fill-rule: nonzero; opacity: 1;"  cx="0" cy="0" r="16" />
</g>
<g transform="matrix(0.31 0 0 0.31 113 433)"  >
<circle style="stroke: none; stroke-width: 1; stroke-dasharray: none; stroke-linecap: butt; stroke-dashoffset: 0; stroke-linejoin: miter; stroke-miterlimit: 4; fill: rgb(99,99,133); fill-opacity: 0.42; fill-rule: nonzero; opacity: 1;"  cx="0" cy="0" r="16" />
</g>
<g transform="matrix(0.31 0 0 0.31 113 486)"  >
<circle style="stroke: none; stroke-width: 1; stroke-dasharray: none; stroke-linecap: butt; stroke-dashoffset: 0; stroke-linejoin: miter; stroke-miterlimit: 4; fill: rgb(99,99,133); fill-opacity: 0.42; fill-rule: nonzero; opacity: 1;"  cx="0" cy="0" r="16" />
</g>
<g transform="matrix(0.31 0 0 0.31 113 539)"  >
<circle style="stroke: none; stroke-width: 1; stroke-dasharray: none; stroke-linecap: butt; stroke-dashoffset: 0; stroke-linejoin: miter; stroke-miterlimit: 4; fill: rgb(99,99,133); fill-opacity: 0.42; fill-rule: nonzero; opacity: 1;"  cx="0" cy="0" r="16" />
</g>
<g transform="matrix(0.31 0 0 0.31 166 60)"  >
<circle style="stroke: none; stroke-width: 1; stroke-dasharray: none; stroke-linecap: butt; stroke-dashoffset: 0; stroke-linejoin: miter; stroke-miterlimit: 4; fill: rgb(99,99,133); fill-opacity: 0.42; fill-rule: nonzero; opacity: 1;"  cx="0" cy="0" r="16" />
</g>
<g transform="matrix(0.31 0 0 0.31 166 113)"  >
<circle style="stroke: none; stroke-width: 1; stroke-dasharray: none; stroke-linecap: butt; stroke-dashoffset: 0; stroke-linejoin: miter; stroke-miterlimit: 4; fill: rgb(99,99,133); fill-opacity: 0.42; fill-rule: nonzero; opacity: 1;"  cx="0" cy="0" r="16" />
</g>
<g transform="matrix(0.31 0 0 0.31 166 166)"  >
<circle style="stroke: none; stroke-width: 1; stroke-dasharray: none; stroke-linecap: butt; stroke-dashoffset: 0; stroke-linejoin: miter; stroke-miterlimit: 4; fill: rgb(99,99,133); fill-opacity: 0.42; fill-rule: nonzero; opacity: 1;"  cx="0" cy="0" r="16" />
</g>
<g transform="matrix(0.31 0 0 0.31 166 220)"  >
<circle style="stroke: none; stroke-width: 1; stroke-dasharray: none; stroke-linecap: butt; stroke-dashoffset: 0; stroke-linejoin: miter; stroke-miterlimit: 4; fill: rgb(99,99,133); fill-opacity: 0.42; fill-rule: nonzero; opacity: 1;"  cx="0" cy="0" r="16" />
</g>
<g transform="matrix(0.31 0 0 0.31 166 273)"  >
<circle style="stroke: none; stroke-width: 1; stroke-dasharray: none; stroke-linecap: butt; stroke-dashoffset: 0; stroke-linejoin: miter; stroke-miterlimit: 4; fill: rgb(99,99,133); fill-opacity: 0.42; fill-rule: nonzero; opacity: 1;"  cx="0" cy="0" r="16" />
</g>
<g transform="matrix(0.31 0 0 0.31 166 326)"  >
<circle style="stroke: none; stroke-width: 1; stroke-dasharray: none; stroke-linecap: butt; stroke-dashoffset: 0; stroke-linejoin: miter; stroke-miterlimit: 4; fill: rgb(99,99,133); fill-opacity: 0.42; fill-rule: nonzero; opacity: 1;"  cx="0" cy="0" r="16" />
</g>
<g transform="matrix(0.31 0 0 0.31 166 380)"  >
<circle style="stroke: none; stroke-width: 1; stroke-dasharray: none; stroke-linecap: butt; stroke-dashoffset: 0; stroke-linejoin: miter; stroke-miterlimit: 4; fill: rgb(99,99,133); fill-opacity: 0.42; fill-rule: nonzero; opacity: 1;"  cx="0" cy="0" r="16" />
</g>
<g transform="matrix(0.31 0 0 0.31 166 433)"  >
<circle style="stroke: none; stroke-width: 1; stroke-dasharray: none; stroke-linecap: butt; stroke-dashoffset: 0; stroke-linejoin: miter; stroke-miterlimit: 4; fill: rgb(99,99,133); fill-opacity: 0.42; fill-rule: nonzero; opacity: 1;"  cx="0" cy="0" r="16" />
</g>
<g transform="matrix(0.31 0 0 0.31 166 486)"  >
<circle style="stroke: none; stroke-width: 1; stroke-dasharray: none; stroke-linecap: butt; stroke-dashoffset: 0; stroke-linejoin: miter; stroke-miterlimit: 4; fill: rgb(99,99,133); fill-opacity: 0.42; fill-rule: nonzero; opacity: 1;"  cx="0" cy="0" r="16" />
</g>
<g transform="matrix(0.31 0 0 0.31 166 539)"  >
<circle style="stroke: none; stroke-width: 1; stroke-dasharray: none; stroke-linecap: butt; stroke-dashoffset: 0; stroke-linejoin: miter; stroke-miterlimit: 4; fill: rgb(99,99,133); fill-opacity: 0.42; fill-rule: nonzero; opacity: 1;"  cx="0" cy="0" r="16" />
</g>
<g transform="matrix(0.31 0 0 0.31 220 60)"  >
<circle style="stroke: none; stroke-width: 1; stroke-dasharray: none; stroke-linecap: butt; stroke-dashoffset: 0; stroke-linejoin: miter; stroke-miterlimit: 4; fill: rgb(99,99,133); fill-opacity: 0.42; fill-rule: nonzero; opacity: 1;"  cx="0" cy="0" r="16" />
</g>
<g transform="matrix(0.31 0 0 0.31 220 113)"  >
<circle style="stroke: none; stroke-width: 1; stroke-dasharray: none; stroke-linecap: butt; stroke-dashoffset: 0; stroke-linejoin: miter; stroke-miterlimit: 4; fill: rgb(99,99,133); fill-opacity: 0.42; fill-rule: nonzero; opacity: 1;"  cx="0" cy="0" r="16" />
</g>
<g transform="matrix(0.31 0 0 0.31 220 166)"  >
<circle style="stroke: none; stroke-width: 1; stroke-dasharray: none; stroke-linecap: butt; stroke-dashoffset: 0; stroke-linejoin: miter; stroke-miterlimit: 4; fill: rgb(99,99,133); fill-opacity: 0.42; fill-rule: nonzero; opacity: 1;"  cx="0" cy="0" r="16" />
</g>
<g transform="matrix(0.31 0 0 0.31 220 220)"  >
<circle style="stroke: none; stroke-width: 1; stroke-dasharray: none; stroke-linecap: butt; stroke-dashoffset: 0; stroke-linejoin: miter; stroke-miterlimit: 4; fill: rgb(99,99,133); fill-opacity: 0.42; fill-rule: nonzero; opacity: 1;"  cx="0" cy="0" r="16" />
</g>
<g transform="matrix(0.31 0 0 0.31 220 273)"  >
<circle style="stroke: none; stroke-width: 1; stroke-dasharray: none; stroke-linecap: butt; stroke-dashoffset: 0; stroke-linejoin: miter; stroke-miterlimit: 4; fill: rgb(99,99,133); fill-opacity: 0.42; fill-rule: nonzero; opacity: 1;"  cx="0" cy="0" r="16" />
</g>
<g transform="matrix(0.31 0 0 0.31 220 326)"  >
<circle style="stroke: none; stroke-width: 1; stroke-dasharray: none; stroke-linecap: butt; stroke-dashoffset: 0; stroke-linejoin: miter; stroke-miterlimit: 4; fill: rgb(99,99,133); fill-opacity: 0.42; fill-rule: nonzero; opacity: 1;"  cx="0" cy="0" r="16" />
</g>
<g transform="matrix(0.31 0 0 0.31 220 380)"  >
<circle style="stroke: none; stroke-width: 1; stroke-dasharray: none; stroke-linecap: butt; stroke-dashoffset: 0; stroke-linejoin: miter; stroke-miterlimit: 4; fill: rgb(99,99,133); fill-opacity: 0.42; fill-rule: nonzero; opacity: 1;"  cx="0" cy="0" r="16" />
</g>
<g transform="matrix(0.31 0 0 0.31 220 433)"  >
<circle style="stroke: none; stroke-width: 1; stroke-dasharray: none; stroke-linecap: butt; stroke-dashoffset: 0; stroke-linejoin: miter; stroke-miterlimit: 4; fill: rgb(99,99,133); fill-opacity: 0.42; fill-rule: nonzero; opacity: 1;"  cx="0" cy="0" r="16" />
</g>
<g transform="matrix(0.31 0 0 0.31 220 486)"  >
<circle style="stroke: none; stroke-width: 1; stroke-dasharray: none; stroke-linecap: butt; stroke-dashoffset: 0; stroke-linejoin: miter; stroke-miterlimit: 4; fill: rgb(99,99,133); fill-opacity: 0.42; fill-rule: nonzero; opacity: 1;"  cx="0" cy="0" r="16" />
</g>
<g transform="matrix(0.31 0 0 0.31 220 539)"  >
<circle style="stroke: none; stroke-width: 1; stroke-dasharray: none; stroke-linecap: butt; stroke-dashoffset: 0; stroke-linejoin: miter; stroke-miterlimit: 4; fill: rgb(99,99,133); fill-opacity: 0.42; fill-rule: nonzero; opacity: 1;"  cx="0" cy="0" r="16" />
</g>
<g transform="matrix(0.31 0 0 0.31 273 60)"  >
<circle style="stroke: none; stroke-width: 1; stroke-dasharray: none; stroke-linecap: butt; stroke-dashoffset: 0; stroke-linejoin: miter; stroke-miterlimit: 4; fill: rgb(99,99,133); fill-opacity: 0.42; fill-rule: nonzero; opacity: 1;"  cx="0" cy="0" r="16" />
</g>
<g transform="matrix(0.31 0 0 0.31 273 113)"  >
<circle style="stroke: none; stroke-width: 1; stroke-dasharray: none; stroke-linecap: butt; stroke-dashoffset: 0; stroke-linejoin: miter; stroke-miterlimit: 4; fill: rgb(99,99,133); fill-opacity: 0.42; fill-rule: nonzero; opacity: 1;"  cx="0" cy="0" r="16" />
</g>
<g transform="matrix(0.31 0 0 0.31 273 166)"  >
<circle style="stroke: none; stroke-width: 1; stroke-dasharray: none; stroke-linecap: butt; stroke-dashoffset: 0; stroke-linejoin: miter; stroke-miterlimit: 4; fill: rgb(99,99,133); fill-opacity: 0.42; fill-rule: nonzero; opacity: 1;"  cx="0" cy="0" r="16" />
</g>
<g transform="matrix(0.31 0 0 0.31 273 220)"  >
<circle style="stroke: none; stroke-width: 1; stroke-dasharray: none; stroke-linecap: butt; stroke-dashoffset: 0; stroke-linejoin: miter; stroke-miterlimit: 4; fill: rgb(99,99,133); fill-opacity: 0.42; fill-rule: nonzero; opacity: 1;"  cx="0" cy="0" r="16" />
</g>
<g transform="matrix(0.31 0 0 0.31 273 273)"  >
<circle style="stroke: none; stroke-width: 1; stroke-dasharray: none; stroke-linecap: butt; stroke-dashoffset: 0; stroke-linejoin: miter; stroke-miterlimit: 4; fill: rgb(99,99,133); fill-opacity: 0.42; fill-rule: nonzero; opacity: 1;"  cx="0" cy="0" r="16" />
</g>
<g transform="matrix(0.31 0 0 0.31 273 326)"  >
<circle style="stroke: none; stroke-width: 1; stroke-dasharray: none; stroke-linecap: butt; stroke-dashoffset: 0; stroke-linejoin: miter; stroke-miterlimit: 4; fill: rgb(99,99,133); fill-opacity: 0.42; fill-rule: nonzero; opacity: 1;"  cx="0" cy="0" r="16" />
</g>
<g transform="matrix(0.31 0 0 0.31 273 380)"  >
<circle style="stroke: none; stroke-width: 1; stroke-dasharray: none; stroke-linecap: butt; stroke-dashoffset: 0; stroke-linejoin: miter; stroke-miterlimit: 4; fill: rgb(99,99,133); fill-opacity: 0.42; fill-rule: nonzero; opacity: 1;"  cx="0" cy="0" r="16" />
</g>
<g transform="matrix(0.31 0 0 0.31 273 433)"  >
<circle style="stroke: none; stroke-width: 1; stroke-dasharray: none; stroke-linecap: butt; stroke-dashoffset: 0; stroke-linejoin: miter; stroke-miterlimit: 4; fill: rgb(99,99,133); fill-opacity: 0.42; fill-rule: nonzero; opacity: 1;"  cx="0" cy="0" r="16" />
</g>
<g transform="matrix(0.31 0 0 0.31 273 486)"  >
<circle style="stroke: none; stroke-width: 1; stroke-dasharray: none; stroke-linecap: butt; stroke-dashoffset: 0; stroke-linejoin: miter; stroke-miterlimit: 4; fill: rgb(99,99,133); fill-opacity: 0.42; fill-rule: nonzero; opacity: 1;"  cx="0" cy="0" r="16" />
</g>
<g transform="matrix(0.31 0 0 0.31 273 539)"  >
<circle style="stroke: none; stroke-width: 1; stroke-dasharray: none; stroke-linecap: butt; stroke-dashoffset: 0; stroke-linejoin: miter; stroke-miterlimit: 4; fill: rgb(99,99,133); fill-opacity: 0.42; fill-rule: nonzero; opacity: 1;"  cx="0" cy="0" r="16" />
</g>
<g transform="matrix(0.31 0 0 0.31 326 60)"  >
<circle style="stroke: none; stroke-width: 1; stroke-dasharray: none; stroke-linecap: butt; stroke-dashoffset: 0; stroke-linejoin: miter; stroke-miterlimit: 4; fill: rgb(99,99,133); fill-opacity: 0.42; fill-rule: nonzero; opacity: 1;"  cx="0" cy="0" r="16" />
</g>
<g transform="matrix(0.31 0 0 0.31 326 113)"  >
<circle style="stroke: none; stroke-width: 1; stroke-dasharray: none; stroke-linecap: butt; stroke-dashoffset: 0; stroke-linejoin: miter; stroke-miterlimit: 4; fill: rgb(99,99,133); fill-opacity: 0.42; fill-rule: nonzero; opacity: 1;"  cx="0" cy="0" r="16" />
</g>
<g transform="matrix(0.31 0 0 0.31 326 166)"  >
<circle style="stroke: none; stroke-width: 1; stroke-dasharray: none; stroke-linecap: butt; stroke-dashoffset: 0; stroke-linejoin: miter; stroke-miterlimit: 4; fill: rgb(99,99,133); fill-opacity: 0.42; fill-rule: nonzero; opacity: 1;"  cx="0" cy="0" r="16" />
</g>
<g transform="matrix(0.31 0 0 0.31 326 220)"  >
<circle style="stroke: none; stroke-width: 1; stroke-dasharray: none; stroke-linecap: butt; stroke-dashoffset: 0; stroke-linejoin: miter; stroke-miterlimit: 4; fill: rgb(99,99,133); fill-opacity: 0.42; fill-rule: nonzero; opacity: 1;"  cx="0" cy="0" r="16" />
</g>
<g transform="matrix(0.31 0 0 0.31 326 273)"  >
<circle style="stroke: none; stroke-width: 1; stroke-dasharray: none; stroke-linecap: butt; stroke-dashoffset: 0; stroke-linejoin: miter; stroke-miterlimit: 4; fill: rgb(99,99,133); fill-opacity: 0.42; fill-rule: nonzero; opacity: 1;"  cx="0" cy="0" r="16" />
</g>
<g transform="matrix(0.31 0 0 0.31 326 326)"  >
<circle style="stroke: none; stroke-width: 1; stroke-dasharray: none; stroke-linecap: butt; stroke-dashoffset: 0; stroke-linejoin: miter; stroke-miterlimit: 4; fill: rgb(99,99,133); fill-opacity: 0.42; fill-rule: nonzero; opacity: 1;"  cx="0" cy="0" r="16" />
</g>
<g transform="matrix(0.31 0 0 0.31 326 380)"  >
<circle style="stroke: none; stroke-width: 1; stroke-dasharray: none; stroke-linecap: butt; stroke-dashoffset: 0; stroke-linejoin: miter; stroke-miterlimit: 4; fill: rgb(99,99,133); fill-opacity: 0.42; fill-rule: nonzero; opacity: 1;"  cx="0" cy="0" r="16" />
</g>
<g transform="matrix(0.31 0 0 0.31 326 433)"  >
<circle style="stroke: none; stroke-width: 1; stroke-dasharray: none; stroke-linecap: butt; stroke-dashoffset: 0; stroke-linejoin: miter; stroke-miterlimit: 4; fill: rgb(99,99,133); fill-opacity: 0.42; fill-rule: nonzero; opacity: 1;"  cx="0" cy="0" r="16" />
</g>
<g transform="matrix(0.31 0 0 0.31 326 486)"  >
<circle style="stroke: none; stroke-width: 1; stroke-dasharray: none; stroke-linecap: butt; stroke-dashoffset: 0; stroke-linejoin: miter; stroke-miterlimit: 4; fill: rgb(99,99,133); fill-opacity: 0.42; fill-rule: nonzero; opacity: 1;"  cx="0" cy="0" r="16" />
</g>
<g transform="matrix(0.31 0 0 0.31 326 539)"  >
<circle style="stroke: none; stroke-width: 1; stroke-dasharray: none; stroke-linecap: butt; stroke-dashoffset: 0; stroke-linejoin: miter; stroke-miterlimit: 4; fill: rgb(99,99,133); fill-opacity: 0.42; fill-rule: nonzero; opacity: 1;"  cx="0" cy="0" r="16" />
</g>
<g transform="matrix(0.31 0 0 0.31 380 60)"  >
<circle style="stroke: none; stroke-width: 1; stroke-dasharray: none; stroke-linecap: butt; stroke-dashoffset: 0; stroke-linejoin: miter; stroke-miterlimit: 4; fill: rgb(99,99,133); fill-opacity: 0.42; fill-rule: nonzero; opacity: 1;"  cx="0" cy="0" r="16" />
</g>
<g transform="matrix(0.31 0 0 0.31 380 113)"  >
<circle style="stroke: none; stroke-width: 1; stroke-dasharray: none; stroke-linecap: butt; stroke-dashoffset: 0; stroke-linejoin: miter; stroke-miterlimit: 4; fill: rgb(99,99,133); fill-opacity: 0.42; fill-rule: nonzero; opacity: 1;"  cx="0" cy="0" r="16" />
</g>
<g transform="matrix(0.31 0 0 0.31 380 166)"  >
<circle style="stroke: none; stroke-width: 1; stroke-dasharray: none; stroke-linecap: butt; stroke-dashoffset: 0; stroke-linejoin: miter; stroke-miterlimit: 4; fill: rgb(99,99,133); fill-opacity: 0.42; fill-rule: nonzero; opacity: 1;"  cx="0" cy="0" r="16" />
</g>
<g transform="matrix(0.31 0 0 0.31 380 220)"  >
<circle style="stroke: none; stroke-width: 1; stroke-dasharray: none; stroke-linecap: butt; stroke-dashoffset: 0; stroke-linejoin: miter; stroke-miterlimit: 4; fill: rgb(99,99,133); fill-opacity: 0.42; fill-rule: nonzero; opacity: 1;"  cx="0" cy="0" r="16" />
</g>
<g transform="matrix(0.31 0 0 0.31 380 273)"  >
<circle style="stroke: none; stroke-width: 1; stroke-dasharray: none; stroke-linecap: butt; stroke-dashoffset: 0; stroke-linejoin: miter; stroke-miterlimit: 4; fill: rgb(99,99,133); fill-opacity: 0.42; fill-rule: nonzero; opacity: 1;"  cx="0" cy="0" r="16" />
</g>
<g transform="matrix(0.31 0 0 0.31 380 326)"  >
<circle style="stroke: none; stroke-width: 1; stroke-dasharray: none; stroke-linecap: butt; stroke-dashoffset: 0; stroke-linejoin: miter; stroke-miterlimit: 4; fill: rgb(99,99,133); fill-opacity: 0.42; fill-rule: nonzero; opacity: 1;"  cx="0" cy="0" r="16" />
</g>
<g transform="matrix(0.31 0 0 0.31 380 380)"  >
<circle style="stroke: none; stroke-width: 1; stroke-dasharray: none; stroke-linecap: butt; stroke-dashoffset: 0; stroke-linejoin: miter; stroke-miterlimit: 4; fill: rgb(99,99,133); fill-opacity: 0.42; fill-rule: nonzero; opacity: 1;"  cx="0" cy="0" r="16" />
</g>
<g transform="matrix(0.31 0 0 0.31 380 433)"  >
<circle style="stroke: none; stroke-width: 1; stroke-dasharray: none; stroke-linecap: butt; stroke-dashoffset: 0; stroke-linejoin: miter; stroke-miterlimit: 4; fill: rgb(99,99,133); fill-opacity: 0.42; fill-rule: nonzero; opacity: 1;"  cx="0" cy="0" r="16" />
</g>
<g transform="matrix(0.31 0 0 0.31 380 486)"  >
<circle style="stroke: none; stroke-width: 1; stroke-dasharray: none; stroke-linecap: butt; stroke-dashoffset: 0; stroke-linejoin: miter; stroke-miterlimit: 4; fill: rgb(99,99,133); fill-opacity: 0.42; fill-rule: nonzero; opacity: 1;"  cx="0" cy="0" r="16" />
</g>
<g transform="matrix(0.31 0 0 0.31 380 539)"  >
<circle style="stroke: none; stroke-width: 1; stroke-dasharray: none; stroke-linecap: butt; stroke-dashoffset: 0; stroke-linejoin: miter; stroke-miterlimit: 4; fill: rgb(99,99,133); fill-opacity: 0.42; fill-rule: nonzero; opacity: 1;"  cx="0" cy="0" r="16" />
</g>
<g transform="matrix(0.31 0 0 0.31 433 60)"  >
<circle style="stroke: none; stroke-width: 1; stroke-dasharray: none; stroke-linecap: butt; stroke-dashoffset: 0; stroke-linejoin: miter; stroke-miterlimit: 4; fill: rgb(99,99,133); fill-opacity: 0.42; fill-rule: nonzero; opacity: 1;"  cx="0" cy="0" r="16" />
</g>
<g transform="matrix(0.31 0 0 0.31 433 113)"  >
<circle style="stroke: none; stroke-width: 1; stroke-dasharray: none; stroke-linecap: butt; stroke-dashoffset: 0; stroke-linejoin: miter; stroke-miterlimit: 4; fill: rgb(99,99,133); fill-opacity: 0.42; fill-rule: nonzero; opacity: 1;"  cx="0" cy="0" r="16" />
</g>
<g transform="matrix(0.31 0 0 0.31 433 166)"  >
<circle style="stroke: none; stroke-width: 1; stroke-dasharray: none; stroke-linecap: butt; stroke-dashoffset: 0; stroke-linejoin: miter; stroke-miterlimit: 4; fill: rgb(99,99,133); fill-opacity: 0.42; fill-rule: nonzero; opacity: 1;"  cx="0" cy="0" r="16" />
</g>
<g transform="matrix(0.31 0 0 0.31 433 220)"  >
<circle style="stroke: none; stroke-width: 1; stroke-dasharray: none; stroke-linecap: butt; stroke-dashoffset: 0; stroke-linejoin: miter; stroke-miterlimit: 4; fill: rgb(99,99,133); fill-opacity: 0.42; fill-rule: nonzero; opacity: 1;"  cx="0" cy="0" r="16" />
</g>
<g transform="matrix(0.31 0 0 0.31 433 273)"  >
<circle style="stroke: none; stroke-width: 1; stroke-dasharray: none; stroke-linecap: butt; stroke-dashoffset: 0; stroke-linejoin: miter; stroke-miterlimit: 4; fill: rgb(99,99,133); fill-opacity: 0.42; fill-rule: nonzero; opacity: 1;"  cx="0" cy="0" r="16" />
</g>
<g transform="matrix(0.31 0 0 0.31 433 326)"  >
<circle style="stroke: none; stroke-width: 1; stroke-dasharray: none; stroke-linecap: butt; stroke-dashoffset: 0; stroke-linejoin: miter; stroke-miterlimit: 4; fill: rgb(99,99,133); fill-opacity: 0.42; fill-rule: nonzero; opacity: 1;"  cx="0" cy="0" r="16" />
</g>
<g transform="matrix(0.31 0 0 0.31 433 380)"  >
<circle style="stroke: none; stroke-width: 1; stroke-dasharray: none; stroke-linecap: butt; stroke-dashoffset: 0; stroke-linejoin: miter; stroke-miterlimit: 4; fill: rgb(99,99,133); fill-opacity: 0.42; fill-rule: nonzero; opacity: 1;"  cx="0" cy="0" r="16" />
</g>
<g transform="matrix(0.31 0 0 0.31 433 433)"  >
<circle style="stroke: none; stroke-width: 1; stroke-dasharray: none; stroke-linecap: butt; stroke-dashoffset: 0; stroke-linejoin: miter; stroke-miterlimit: 4; fill: rgb(99,99,133); fill-opacity: 0.42; fill-rule: nonzero; opacity: 1;"  cx="0" cy="0" r="16" />
</g>
<g transform="matrix(0.31 0 0 0.31 433 486)"  >
<circle style="stroke: none; stroke-width: 1; stroke-dasharray: none; stroke-linecap: butt; stroke-dashoffset: 0; stroke-linejoin: miter; stroke-miterlimit: 4; fill: rgb(99,99,133); fill-opacity: 0.42; fill-rule: nonzero; opacity: 1;"  cx="0" cy="0" r="16" />
</g>
<g transform="matrix(0.31 0 0 0.31 433 539)"  >
<circle style="stroke: none; stroke-width: 1; stroke-dasharray: none; stroke-linecap: butt; stroke-dashoffset: 0; stroke-linejoin: miter; stroke-miterlimit: 4; fill: rgb(99,99,133); fill-opacity: 0.42; fill-rule: nonzero; opacity: 1;"  cx="0" cy="0" r="16" />
</g>
<g transform="matrix(0.31 0 0 0.31 486 60)"  >
<circle style="stroke: none; stroke-width: 1; stroke-dasharray: none; stroke-linecap: butt; stroke-dashoffset: 0; stroke-linejoin: miter; stroke-miterlimit: 4; fill: rgb(99,99,133); fill-opacity: 0.42; fill-rule: nonzero; opacity: 1;"  cx="0" cy="0" r="16" />
</g>
<g transform="matrix(0.31 0 0 0.31 486 113)"  >
<circle style="stroke: none; stroke-width: 1; stroke-dasharray: none; stroke-linecap: butt; stroke-dashoffset: 0; stroke-linejoin: miter; stroke-miterlimit: 4; fill: rgb(99,99,133); fill-opacity: 0.42; fill-rule: nonzero; opacity: 1;"  cx="0" cy="0" r="16" />
</g>
<g transform="matrix(0.31 0 0 0.31 486 166)"  >
<circle style="stroke: none; stroke-width: 1; stroke-dasharray: none; stroke-linecap: butt; stroke-dashoffset: 0; stroke-linejoin: miter; stroke-miterlimit: 4; fill: rgb(99,99,133); fill-opacity: 0.42; fill-rule: nonzero; opacity: 1;"  cx="0" cy="0" r="16" />
</g>
<g transform="matrix(0.31 0 0 0.31 486 220)"  >
<circle style="stroke: none; stroke-width: 1; stroke-dasharray: none; stroke-linecap: butt; stroke-dashoffset: 0; stroke-linejoin: miter; stroke-miterlimit: 4; fill: rgb(99,99,133); fill-opacity: 0.42; fill-rule: nonzero; opacity: 1;"  cx="0" cy="0" r="16" />
</g>
<g transform="matrix(0.31 0 0 0.31 486 273)"  >
<circle style="stroke: none; stroke-width: 1; stroke-dasharray: none; stroke-linecap: butt; stroke-dashoffset: 0; stroke-linejoin: miter; stroke-miterlimit: 4; fill: rgb(99,99,133); fill-opacity: 0.42; fill-rule: nonzero; opacity: 1;"  cx="0" cy="0" r="16" />
</g>
<g transform="matrix(0.31 0 0 0.31 486 326)"  >
<circle style="stroke: none; stroke-width: 1; stroke-dasharray: none; stroke-linecap: butt; stroke-dashoffset: 0; stroke-linejoin: miter; stroke-miterlimit: 4; fill: rgb(99,99,133); fill-opacity: 0.42; fill-rule: nonzero; opacity: 1;"  cx="0" cy="0" r="16" />
</g>
<g transform="matrix(0.31 0 0 0.31 486 380)"  >
<circle style="stroke: none; stroke-width: 1; stroke-dasharray: none; stroke-linecap: butt; stroke-dashoffset: 0; stroke-linejoin: miter; stroke-miterlimit: 4; fill: rgb(99,99,133); fill-opacity: 0.42; fill-rule: nonzero; opacity: 1;"  cx="0" cy="0" r="16" />
</g>
<g transform="matrix(0.31 0 0 0.31 486 433)"  >
<circle style="stroke: none; stroke-width: 1; stroke-dasharray: none; stroke-linecap: butt; stroke-dashoffset: 0; stroke-linejoin: miter; stroke-miterlimit: 4; fill: rgb(99,99,133); fill-opacity: 0.42; fill-rule: nonzero; opacity: 1;"  cx="0" cy="0" r="16" />
</g>
<g transform="matrix(0.31 0 0 0.31 486 486)"  >
<circle style="stroke: none; stroke-width: 1; stroke-dasharray: none; stroke-linecap: butt; stroke-dashoffset: 0; stroke-linejoin: miter; stroke-miterlimit: 4; fill: rgb(99,99,133); fill-opacity: 0.42; fill-rule: nonzero; opacity: 1;"  cx="0" cy="0" r="16" />
</g>
<g transform="matrix(0.31 0 0 0.31 486 539)"  >
<circle style="stroke: none; stroke-width: 1; stroke-dasharray: none; stroke-linecap: butt; stroke-dashoffset: 0; stroke-linejoin: miter; stroke-miterlimit: 4; fill: rgb(99,99,133); fill-opacity: 0.42; fill-rule: nonzero; opacity: 1;"  cx="0" cy="0" r="16" />
</g>
<g transform="matrix(0.31 0 0 0.31 539 60)"  >
<circle style="stroke: none; stroke-width: 1; stroke-dasharray: none; stroke-linecap: butt; stroke-dashoffset: 0; stroke-linejoin: miter; stroke-miterlimit: 4; fill: rgb(99,99,133); fill-opacity: 0.42; fill-rule: nonzero; opacity: 1;"  cx="0" cy="0" r="16" />
</g>
<g transform="matrix(0.31 0 0 0.31 539 113)"  >
<circle style="stroke: none; stroke-width: 1; stroke-dasharray: none; stroke-linecap: butt; stroke-dashoffset: 0; stroke-linejoin: miter; stroke-miterlimit: 4; fill: rgb(99,99,133); fill-opacity: 0.42; fill-rule: nonzero; opacity: 1;"  cx="0" cy="0" r="16" />
</g>
<g transform="matrix(0.31 0 0 0.31 539 166)"  >
<circle style="stroke: none; stroke-width: 1; stroke-dasharray: none; stroke-linecap: butt; stroke-dashoffset: 0; stroke-linejoin: miter; stroke-miterlimit: 4; fill: rgb(99,99,133); fill-opacity: 0.42; fill-rule: nonzero; opacity: 1;"  cx="0" cy="0" r="16" />
</g>
<g transform="matrix(0.31 0 0 0.31 539 220)"  >
<circle style="stroke: none; stroke-width: 1; stroke-dasharray: none; stroke-linecap: butt; stroke-dashoffset: 0; stroke-linejoin: miter; stroke-miterlimit: 4; fill: rgb(99,99,133); fill-opacity: 0.42; fill-rule: nonzero; opacity: 1;"  cx="0" cy="0" r="16" />
</g>
<g transform="matrix(0.31 0 0 0.31 539 273)"  >
<circle style="stroke: none; stroke-width: 1; stroke-dasharray: none; stroke-linecap: butt; stroke-dashoffset: 0; stroke-linejoin: miter; stroke-miterlimit: 4; fill: rgb(99,99,133); fill-opacity: 0.42; fill-rule: nonzero; opacity: 1;"  cx="0" cy="0" r="16" />
</g>
<g transform="matrix(0.31 0 0 0.31 539 326)"  >
<circle style="stroke: none; stroke-width: 1; stroke-dasharray: none; stroke-linecap: butt; stroke-dashoffset: 0; stroke-linejoin: miter; stroke-miterlimit: 4; fill: rgb(99,99,133); fill-opacity: 0.42; fill-rule: nonzero; opacity: 1;"  cx="0" cy="0" r="16" />
</g>
<g transform="matrix(0.31 0 0 0.31 539 380)"  >
<circle style="stroke: none; stroke-width: 1; stroke-dasharray: none; stroke-linecap: butt; stroke-dashoffset: 0; stroke-linejoin: miter; stroke-miterlimit: 4; fill: rgb(99,99,133); fill-opacity: 0.42; fill-rule: nonzero; opacity: 1;"  cx="0" cy="0" r="16" />
</g>
<g transform="matrix(0.31 0 0 0.31 539 433)"  >
<circle style="stroke: none; stroke-width: 1; stroke-dasharray: none; stroke-linecap: butt; stroke-dashoffset: 0; stroke-linejoin: miter; stroke-miterlimit: 4; fill: rgb(99,99,133); fill-opacity: 0.42; fill-rule: nonzero; opacity: 1;"  cx="0" cy="0" r="16" />
</g>
<g transform="matrix(0.31 0 0 0.31 539 486)"  >
<circle style="stroke: none; stroke-width: 1; stroke-dasharray: none; stroke-linecap: butt; stroke-dashoffset: 0; stroke-linejoin: miter; stroke-miterlimit: 4; fill: rgb(99,99,133); fill-opacity: 0.42; fill-rule: nonzero; opacity: 1;"  cx="0" cy="0" r="16" />
</g>
<g transform="matrix(0.31 0 0 0.31 539 539)"  >
<circle style="stroke: none; stroke-width: 1; stroke-dasharray: none; stroke-linecap: butt; stroke-dashoffset: 0; stroke-linejoin: miter; stroke-miterlimit: 4; fill: rgb(99,99,133); fill-opacity: 0.42; fill-rule: nonzero; opacity: 1;"  cx="0" cy="0" r="16" />
</g>
</svg>